<svg width="240" height="60" viewBox="0 0 240 60" fill="none" xmlns="http://www.w3.org/2000/svg">
<rect x="0.5" y="0.5" width="239" height="59" stroke="white"/>
<path d="M63.0553 36V24.608H67.1673C70.4153 24.608 72.1753 26.672 72.1753 30.304C72.1753 33.888 70.3193 36 66.8473 36H63.0553ZM64.5433 34.704H66.7833C69.4073 34.704 70.6553 33.264 70.6553 30.304C70.6553 27.312 69.4233 25.904 66.8633 25.904H64.5433V34.704ZM74.3816 36V27.744H75.8536V36H74.3816ZM74.3656 26.016V24.384H75.8536V26.016H74.3656ZM77.7728 33.392H79.1808C79.3248 34.528 79.9968 35.024 81.2768 35.024C82.5568 35.024 83.2448 34.56 83.2448 33.728C83.2448 33.104 82.8128 32.704 81.9488 32.528L80.2848 32.176C78.7648 31.856 77.9968 31.104 77.9968 29.936C77.9968 28.448 79.1008 27.552 81.0688 27.552C83.0048 27.552 84.2208 28.432 84.4288 30.144H82.9728C82.8128 29.2 82.1568 28.72 81.0208 28.72C79.9168 28.72 79.3568 29.088 79.3568 29.808C79.3568 30.384 79.7248 30.704 80.6368 30.912L82.2368 31.264C83.9008 31.632 84.6528 32.384 84.6528 33.6C84.6528 35.216 83.3728 36.208 81.2128 36.208C79.1168 36.208 77.9648 35.264 77.7728 33.392ZM89.8349 36.208C87.4669 36.208 86.0109 34.64 86.0109 31.936C86.0109 29.184 87.4829 27.536 89.9149 27.536C91.8509 27.536 93.1309 28.592 93.4029 30.448H92.0109C91.7869 29.328 91.0989 28.768 89.9309 28.768C88.2989 28.768 87.4829 29.808 87.4829 31.872C87.4829 33.84 88.3629 34.976 89.9149 34.976C91.0829 34.976 91.7869 34.352 92.0269 33.12H93.4029C93.0989 35.104 91.8669 36.208 89.8349 36.208ZM98.8852 36.208C96.3572 36.208 94.9172 34.272 94.9172 31.872C94.9172 29.424 96.3732 27.536 98.9332 27.536C101.477 27.536 102.869 29.376 102.869 31.808C102.869 34.192 101.397 36.208 98.8852 36.208ZM96.3892 31.872C96.3892 33.744 97.3492 34.976 98.8852 34.976C100.437 34.976 101.397 33.728 101.397 31.808C101.397 29.936 100.469 28.768 98.8852 28.768C97.3332 28.768 96.3892 29.952 96.3892 31.872ZM103.752 27.744H105.336L106.984 32.512L107.672 34.736L108.344 32.512L109.912 27.744H111.4L108.376 36H106.92L103.752 27.744ZM112.292 31.84C112.292 29.408 113.604 27.552 116.18 27.552C118.5 27.552 119.956 29.12 119.956 31.68V32.224H113.764C113.812 34.016 114.724 34.992 116.26 34.992C117.396 34.992 118.164 34.448 118.548 33.344L119.892 33.504C119.38 35.216 118.02 36.192 116.212 36.192C113.652 36.192 112.292 34.256 112.292 31.84ZM116.196 28.752C114.692 28.752 113.924 29.76 113.78 31.168H118.58C118.404 29.776 117.7 28.752 116.196 28.752ZM122.038 36V27.744H123.414V29.408C123.99 28.144 124.886 27.52 126.102 27.52C126.262 27.52 126.358 27.52 126.406 27.536V28.976C126.326 28.96 126.15 28.96 125.878 28.96C124.47 28.96 123.558 30.16 123.51 31.488V36H122.038ZM130.533 35.92L127.205 27.744H128.805L130.949 33.44L131.125 34.432L133.509 27.744H135.029L131.189 37.616C130.693 38.848 130.117 39.264 128.917 39.264H128.005V38.032H128.773C129.525 38.032 129.813 37.808 130.149 36.928L130.533 35.92ZM141.022 27.744H142.43L142.366 28.96C142.926 28.016 143.774 27.536 144.878 27.536C146.046 27.536 146.798 28.016 147.166 28.976C147.71 28.016 148.59 27.536 149.79 27.536C151.47 27.536 152.318 28.464 152.318 30.336V36H150.846V30.352C150.846 29.392 150.334 28.816 149.422 28.816C148.206 28.816 147.406 29.68 147.406 31.52V36H145.934V30.352C145.934 29.392 145.406 28.816 144.51 28.816C143.31 28.816 142.494 29.744 142.494 31.6V36H141.022V27.744ZM158.37 36.208C155.842 36.208 154.402 34.272 154.402 31.872C154.402 29.424 155.858 27.536 158.418 27.536C160.962 27.536 162.354 29.376 162.354 31.808C162.354 34.192 160.882 36.208 158.37 36.208ZM155.874 31.872C155.874 33.744 156.834 34.976 158.37 34.976C159.922 34.976 160.882 33.728 160.882 31.808C160.882 29.936 159.954 28.768 158.37 28.768C156.818 28.768 155.874 29.952 155.874 31.872ZM164.428 36V27.744H165.804V29.408C166.38 28.144 167.276 27.52 168.492 27.52C168.652 27.52 168.748 27.52 168.796 27.536V28.976C168.716 28.96 168.54 28.96 168.268 28.96C166.86 28.96 165.948 30.16 165.9 31.488V36H164.428ZM169.839 31.84C169.839 29.408 171.151 27.552 173.727 27.552C176.047 27.552 177.503 29.12 177.503 31.68V32.224H171.311C171.359 34.016 172.271 34.992 173.807 34.992C174.943 34.992 175.711 34.448 176.095 33.344L177.439 33.504C176.927 35.216 175.567 36.192 173.759 36.192C171.199 36.192 169.839 34.256 169.839 31.84ZM173.743 28.752C172.239 28.752 171.471 29.76 171.327 31.168H176.127C175.951 29.776 175.247 28.752 173.743 28.752Z" fill="white"/>
</svg>
