<svg width="240" height="60" viewBox="0 0 240 60" fill="none" xmlns="http://www.w3.org/2000/svg">
<rect x="0.5" y="0.5" width="239" height="59" stroke="black"/>
<path d="M67.1448 36.272C63.6888 36.272 61.9928 33.488 61.9928 30.304C61.9928 27.152 63.7208 24.4 67.1288 24.4C69.4008 24.4 71.4488 25.696 71.8168 28.048H70.2968C69.9608 26.576 68.8088 25.728 67.1928 25.728C64.8888 25.728 63.5128 27.44 63.5128 30.304C63.5128 33.184 64.8888 34.944 67.1928 34.944C69.0328 34.944 70.2168 33.856 70.4888 31.856H71.9608C71.5768 34.608 69.7688 36.272 67.1448 36.272ZM73.9675 36V27.744H75.3435V29.408C75.9195 28.144 76.8155 27.52 78.0315 27.52C78.1915 27.52 78.2875 27.52 78.3355 27.536V28.976C78.2555 28.96 78.0795 28.96 77.8075 28.96C76.3995 28.96 75.4875 30.16 75.4395 31.488V36H73.9675ZM79.3781 31.84C79.3781 29.408 80.6901 27.552 83.2661 27.552C85.5861 27.552 87.0421 29.12 87.0421 31.68V32.224H80.8501C80.8981 34.016 81.8101 34.992 83.3461 34.992C84.4821 34.992 85.2501 34.448 85.6341 33.344L86.9781 33.504C86.4661 35.216 85.1061 36.192 83.2981 36.192C80.7381 36.192 79.3781 34.256 79.3781 31.84ZM83.2821 28.752C81.7781 28.752 81.0101 29.76 80.8661 31.168H85.6661C85.4901 29.776 84.7861 28.752 83.2821 28.752ZM88.6758 33.808C88.6758 32.336 89.6198 31.472 91.4918 31.232L93.6038 30.96C94.0038 30.912 94.1958 30.704 94.1958 30.336V29.984C94.1958 29.136 93.5718 28.704 92.3398 28.704C91.1078 28.704 90.5478 29.104 90.4678 30.176H89.0118C89.1558 28.384 90.2918 27.488 92.4518 27.488C94.6118 27.488 95.6838 28.368 95.6838 30.128V34.192C95.6838 34.72 95.8758 34.912 96.4038 34.912H96.6438V36H95.8598C94.9798 36 94.4998 35.6 94.4358 34.784C93.8598 35.664 92.7718 36.208 91.4438 36.208C89.7158 36.208 88.6758 35.328 88.6758 33.808ZM90.1318 33.744C90.1318 34.576 90.7398 35.072 91.7158 35.072C92.8198 35.072 94.1958 34.352 94.1958 33.104V31.952L91.7318 32.32C90.6598 32.48 90.1318 32.96 90.1318 33.744ZM97.6088 28.88V27.744L98.8408 27.792V25.216H100.313V27.808L102.201 27.744V28.88L100.313 28.816V33.968C100.313 34.592 100.489 34.768 101.113 34.768H102.185V36H100.681C99.4008 36 98.8408 35.44 98.8408 34.16V28.816L97.6088 28.88ZM103.488 31.84C103.488 29.408 104.799 27.552 107.376 27.552C109.696 27.552 111.152 29.12 111.152 31.68V32.224H104.96C105.008 34.016 105.92 34.992 107.456 34.992C108.592 34.992 109.36 34.448 109.744 33.344L111.088 33.504C110.576 35.216 109.216 36.192 107.408 36.192C104.848 36.192 103.488 34.256 103.488 31.84ZM107.391 28.752C105.888 28.752 105.12 29.76 104.976 31.168H109.776C109.6 29.776 108.896 28.752 107.391 28.752ZM119.994 35.92L116.666 27.744H118.266L120.41 33.44L120.586 34.432L122.97 27.744H124.49L120.65 37.616C120.154 38.848 119.578 39.264 118.378 39.264H117.466V38.032H118.234C118.986 38.032 119.274 37.808 119.61 36.928L119.994 35.92ZM129.346 36.208C126.818 36.208 125.378 34.272 125.378 31.872C125.378 29.424 126.834 27.536 129.394 27.536C131.938 27.536 133.33 29.376 133.33 31.808C133.33 34.192 131.858 36.208 129.346 36.208ZM126.85 31.872C126.85 33.744 127.81 34.976 129.346 34.976C130.898 34.976 131.858 33.728 131.858 31.808C131.858 29.936 130.93 28.768 129.346 28.768C127.794 28.768 126.85 29.952 126.85 31.872ZM138.205 36.208C136.461 36.208 135.405 35.2 135.405 33.472V27.744H136.877V33.184C136.877 34.352 137.421 34.928 138.525 34.928C139.917 34.928 140.877 34.064 140.877 32.336V27.744H142.349V36H140.973V34.832C140.381 35.744 139.453 36.208 138.205 36.208ZM152.706 36.208C150.178 36.208 148.738 34.272 148.738 31.872C148.738 29.424 150.194 27.536 152.754 27.536C155.298 27.536 156.69 29.376 156.69 31.808C156.69 34.192 155.218 36.208 152.706 36.208ZM150.21 31.872C150.21 33.744 151.17 34.976 152.706 34.976C154.258 34.976 155.218 33.728 155.218 31.808C155.218 29.936 154.29 28.768 152.706 28.768C151.154 28.768 150.21 29.952 150.21 31.872ZM160.18 36L157.572 27.744H159.172L160.468 32.512L160.964 34.48L161.396 32.512L162.58 27.744H164.18L165.364 32.512L165.764 34.48L166.244 32.512L167.604 27.744H169.124L166.436 36H164.964L163.796 31.072L163.38 28.992L162.932 31.072L161.684 36H160.18ZM170.811 27.744H172.187V28.912C172.779 28 173.707 27.536 174.955 27.536C176.699 27.536 177.755 28.544 177.755 30.272V36H176.283V30.56C176.283 29.392 175.739 28.816 174.635 28.816C173.243 28.816 172.283 29.68 172.283 31.408V36H170.811V27.744Z" fill="black"/>
</svg>
