<svg width="613" height="120" viewBox="0 0 613 120" fill="none" xmlns="http://www.w3.org/2000/svg">
<path d="M-0.000116944 117.602V115.682L7.19988 114.882L10.0799 113.282V6.72156L7.19988 5.12156L-0.000116944 4.32156V2.40156H28.1599V4.32156L20.7999 5.12156L17.9199 6.72156V56.9616H56.7999V6.72156L53.9199 5.12156L46.5599 4.32156V2.40156H74.7199V4.32156L67.3599 5.12156L64.6399 6.72156V113.282L67.3599 114.882L74.7199 115.682V117.602H46.5599V115.682L53.9199 114.882L56.7999 113.282V60.1616H17.9199V113.282L20.7999 114.882L28.1599 115.682V117.602H-0.000116944ZM84.6461 117.602V115.682L93.1261 114.882L96.4861 113.282V6.72156L93.1261 5.12156L84.6461 4.32156V2.40156H116.166V4.32156L107.526 5.12156L104.326 6.72156V113.282L107.526 114.882L116.166 115.682V117.602H84.6461ZM157.109 120.002C137.109 120.002 121.429 95.5216 121.429 60.0016C121.429 24.8016 136.629 0.00156021 159.989 0.00156021C169.269 0.00156021 177.909 4.32156 184.469 10.8816L185.909 33.9216H183.189L182.069 28.0016C178.709 12.6416 170.389 2.72155 158.549 2.72155C141.589 2.72155 129.269 23.8416 129.269 58.7216C129.269 91.6816 140.949 116.322 158.229 116.322C167.669 116.322 173.749 109.122 178.069 97.7616V65.7616L173.109 64.0016L160.469 63.3616V61.4416H191.509V63.0416L185.269 65.1216V117.602H183.349L180.309 100.002C175.189 111.682 168.469 120.002 157.109 120.002ZM197.5 117.602V115.682L204.7 114.882L207.58 113.282V6.72156L204.7 5.12156L197.5 4.32156V2.40156H225.66V4.32156L218.3 5.12156L215.42 6.72156V56.9616H254.3V6.72156L251.42 5.12156L244.06 4.32156V2.40156H272.22V4.32156L264.86 5.12156L262.14 6.72156V113.282L264.86 114.882L272.22 115.682V117.602H244.06V115.682L251.42 114.882L254.3 113.282V60.1616H215.42V113.282L218.3 114.882L225.66 115.682V117.602H197.5ZM282.5 117.602V115.682L289.7 114.882L292.58 113.282V6.72156L289.7 5.12156L282.5 4.32156V2.40156H312.58V4.32156L303.78 5.12156L300.42 6.72156V114.402H330.82L340.58 86.8816H342.82L338.34 116.962V117.602H282.5ZM348.24 117.602V115.682L356.72 114.882L360.08 113.282V6.72156L356.72 5.12156L348.24 4.32156V2.40156H379.76V4.32156L371.12 5.12156L367.92 6.72156V113.282L371.12 114.882L379.76 115.682V117.602H348.24ZM420.702 120.002C400.702 120.002 385.022 95.5216 385.022 60.0016C385.022 24.8016 400.222 0.00156021 423.582 0.00156021C432.862 0.00156021 441.502 4.32156 448.062 10.8816L449.502 33.9216H446.782L445.662 28.0016C442.302 12.6416 433.982 2.72155 422.142 2.72155C405.182 2.72155 392.862 23.8416 392.862 58.7216C392.862 91.6816 404.542 116.322 421.822 116.322C431.262 116.322 437.342 109.122 441.662 97.7616V65.7616L436.702 64.0016L424.062 63.3616V61.4416H455.102V63.0416L448.862 65.1216V117.602H446.942L443.902 100.002C438.782 111.682 432.062 120.002 420.702 120.002ZM461.094 117.602V115.682L468.294 114.882L471.174 113.282V6.72156L468.294 5.12156L461.094 4.32156V2.40156H489.254V4.32156L481.894 5.12156L479.014 6.72156V56.9616H517.894V6.72156L515.014 5.12156L507.654 4.32156V2.40156H535.814V4.32156L528.454 5.12156L525.734 6.72156V113.282L528.454 114.882L535.814 115.682V117.602H507.654V115.682L515.014 114.882L517.894 113.282V60.1616H479.014V113.282L481.894 114.882L489.254 115.682V117.602H461.094ZM561.454 117.602V115.682L570.094 114.882L573.614 113.282V5.76155L554.734 4.32156L545.294 31.5216H543.054L547.534 1.60156H549.134L553.774 2.40156H601.294L605.934 1.60156H607.534L612.014 31.5216H609.774L600.174 4.32156L581.454 5.76155V113.282L584.814 114.882L593.614 115.682V117.602H561.454Z" fill="black"/>
</svg>
