<svg width="97" height="38" viewBox="0 0 97 38" fill="none" xmlns="http://www.w3.org/2000/svg">
<path d="M18.0025 27.6487H18.7318V33.5547H1.4587V32.8253C2.2177 32.7305 2.7573 32.5822 3.0775 32.3806C3.40956 32.1671 3.64082 31.8292 3.77127 31.3666C3.90172 30.9041 3.96695 30.1748 3.96695 29.1786V12.1367C3.96695 10.844 3.81871 9.9961 3.52223 9.59288C3.22574 9.18966 2.5379 8.9169 1.4587 8.77459V8.04524H9.25029V8.77459C8.15923 8.9169 7.45953 9.18966 7.15118 9.59288C6.8547 9.9961 6.70646 10.844 6.70646 12.1367V32.2383H12.7547C13.7272 32.2383 14.504 32.1849 15.0851 32.0782C15.6662 31.9596 16.1761 31.7343 16.6149 31.4022C17.0656 31.0702 17.3917 30.6076 17.5933 30.0147C17.7949 29.4217 17.9313 28.6331 18.0025 27.6487ZM36.681 15.3387V29.0363C36.681 30.1036 36.7343 30.8863 36.8411 31.3844C36.9596 31.8707 37.1613 32.2146 37.4459 32.4162C37.7305 32.6178 38.193 32.7542 38.8334 32.8253V33.5547H34.5463V30.6017C34.0363 31.6335 33.2358 32.4458 32.1448 33.0388C31.0537 33.6199 29.761 33.9105 28.2667 33.9105C26.4285 33.9105 25.0707 33.4302 24.1931 32.4696C23.3155 31.4971 22.8767 29.991 22.8767 27.9511V19.8571C22.8767 18.8017 22.8174 18.0249 22.6988 17.5268C22.5802 17.0287 22.3786 16.6788 22.094 16.4772C21.8093 16.2756 21.3527 16.1392 20.7242 16.0681V15.3387H25.2426V27.7555C25.2426 30.9931 26.5827 32.6119 29.2629 32.6119C30.7098 32.6119 31.9135 32.1316 32.8741 31.171C33.8347 30.1985 34.315 29.0837 34.315 27.8266V19.8571C34.315 18.8017 34.2557 18.0249 34.1371 17.5268C34.0304 17.0287 33.8406 16.6788 33.5679 16.4772C33.307 16.2756 32.88 16.1392 32.2871 16.0681V15.3387H36.681ZM57.1561 20.9423V29.0363C57.1561 30.0918 57.2154 30.8685 57.334 31.3666C57.4526 31.8647 57.6542 32.2146 57.9388 32.4162C58.2235 32.6178 58.68 32.7542 59.3086 32.8253V33.5547H52.9935V32.8253C53.5153 32.7542 53.8889 32.6178 54.1142 32.4162C54.3514 32.2146 54.5233 31.8647 54.6301 31.3666C54.7368 30.8685 54.7902 30.0918 54.7902 29.0363V21.138C54.7902 20.8059 54.7842 20.5391 54.7724 20.3374C54.7724 20.1358 54.7427 19.8453 54.6834 19.4658C54.636 19.0863 54.5648 18.772 54.47 18.523C54.3751 18.2739 54.2328 17.9952 54.043 17.6869C53.8533 17.3785 53.622 17.1354 53.3493 16.9575C53.0765 16.7678 52.7266 16.6077 52.2997 16.4772C51.8728 16.3468 51.3865 16.2816 50.841 16.2816C49.3112 16.2816 48.0719 16.7619 47.1231 17.7225C46.1862 18.6712 45.7178 19.8453 45.7178 21.2447V29.0363C45.7178 30.0799 45.7711 30.8567 45.8779 31.3666C45.9846 31.8647 46.1566 32.2146 46.3938 32.4162C46.6309 32.6178 47.0104 32.7542 47.5323 32.8253V33.5547H41.1994V32.8253C41.8398 32.7542 42.3023 32.6178 42.5869 32.4162C42.8715 32.2146 43.0672 31.8707 43.1739 31.3844C43.2925 30.8863 43.3518 30.1036 43.3518 29.0363V19.8571C43.3518 18.7898 43.2925 18.013 43.1739 17.5268C43.0672 17.0287 42.8715 16.6788 42.5869 16.4772C42.3023 16.2756 41.8398 16.1392 41.1994 16.0681V15.3387H45.4865V18.2206C46.032 17.2007 46.8563 16.4061 47.9592 15.8368C49.0621 15.2676 50.3429 14.983 51.8016 14.983C53.628 14.983 54.974 15.4633 55.8397 16.4239C56.7173 17.3845 57.1561 18.8906 57.1561 20.9423ZM65.0011 10.8559C64.586 10.8559 64.2184 10.7017 63.8981 10.3934C63.5898 10.0732 63.4356 9.69369 63.4356 9.25489C63.4356 8.83981 63.5898 8.4781 63.8981 8.16976C64.2184 7.84956 64.586 7.68946 65.0011 7.68946C65.4399 7.68946 65.8134 7.84956 66.1218 8.16976C66.442 8.4781 66.6021 8.83981 66.6021 9.25489C66.6021 9.69369 66.442 10.0732 66.1218 10.3934C65.8134 10.7017 65.4399 10.8559 65.0011 10.8559ZM68.3098 33.5547H61.6567V32.8253C62.2971 32.7542 62.7597 32.6178 63.0443 32.4162C63.3289 32.2146 63.5246 31.8707 63.6313 31.3844C63.7499 30.8863 63.8092 30.1036 63.8092 29.0363V19.8571C63.8092 18.7898 63.7499 18.013 63.6313 17.5268C63.5246 17.0287 63.3289 16.6788 63.0443 16.4772C62.7597 16.2756 62.2971 16.1392 61.6567 16.0681V15.3387H66.1751V29.0363C66.1751 30.1036 66.2344 30.8863 66.353 31.3844C66.4716 31.8825 66.6673 32.2324 66.9401 32.434C67.2247 32.6356 67.6813 32.766 68.3098 32.8253V33.5547ZM84.2488 21.3158V29.0363C84.2488 30.0918 84.3081 30.8685 84.4267 31.3666C84.5453 31.8647 84.7469 32.2146 85.0315 32.4162C85.3161 32.6178 85.7727 32.7542 86.4013 32.8253V33.5547H82.0963V31.3666C81.5152 32.1731 80.7266 32.8016 79.7304 33.2523C78.7342 33.6911 77.6431 33.9105 76.4572 33.9105C74.8325 33.9105 73.4924 33.4954 72.4369 32.6652C71.3933 31.8351 70.8714 30.578 70.8714 28.894C70.8714 27.7673 71.1205 26.8008 71.6186 25.9944C72.1167 25.1761 72.852 24.5297 73.8244 24.0554C74.8088 23.5691 75.9591 23.2133 77.2755 22.988C78.5919 22.7627 80.1277 22.6441 81.8829 22.6322V21.4937C81.8829 20.9126 81.8532 20.379 81.7939 19.8927C81.7346 19.4065 81.6219 18.9321 81.4559 18.4696C81.3017 17.9952 81.0942 17.5979 80.8333 17.2777C80.5724 16.9575 80.2285 16.6966 79.8015 16.495C79.3865 16.2934 78.9002 16.1867 78.3428 16.1748C76.6232 16.1274 75.3009 16.4654 74.3759 17.1888C73.4627 17.9004 72.9053 19.0329 72.7037 20.5865H71.9744V16.246C73.8363 15.404 75.9235 14.983 78.2361 14.983C79.2323 14.983 80.098 15.1075 80.8333 15.3565C81.5686 15.5937 82.1497 15.9021 82.5766 16.2816C83.0036 16.6611 83.3475 17.1414 83.6084 17.7225C83.8693 18.2917 84.0413 18.861 84.1243 19.4302C84.2073 19.9876 84.2488 20.6161 84.2488 21.3158ZM77.151 32.6474C78.4792 32.6474 79.5999 32.2679 80.5131 31.509C81.4263 30.7381 81.8829 29.6352 81.8829 28.2002V23.7529C81.1831 23.7529 80.5427 23.7767 79.9616 23.8241C79.3924 23.8597 78.8113 23.9308 78.2183 24.0376C77.6253 24.1443 77.0976 24.2807 76.6351 24.4467C76.1844 24.6127 75.7516 24.8321 75.3365 25.1049C74.9214 25.3777 74.5775 25.6979 74.3047 26.0655C74.032 26.4213 73.8185 26.8542 73.6643 27.3641C73.5102 27.8741 73.4331 28.4433 73.4331 29.0719C73.4331 30.1985 73.7533 31.0761 74.3937 31.7046C75.0459 32.3332 75.965 32.6474 77.151 32.6474Z" fill="black"/>
<path fill-rule="evenodd" clip-rule="evenodd" d="M78.7842 11.6696H80.6819C83.9021 11.6696 85.5121 11.6696 86.5125 12.67C87.5129 13.6704 87.5129 15.2805 87.5129 18.5006V22.7699H88.2717V18.5006C88.2717 15.2805 88.2717 13.6704 89.2721 12.67C90.2724 11.6696 91.8825 11.6696 95.1027 11.6696H97.0001V11.1005H95.1027C91.8825 11.1005 90.2724 11.1005 89.2721 10.1001C88.2717 9.09977 88.2717 7.48969 88.2717 4.26954V0H87.5129V4.26954C87.5129 7.48969 87.5129 9.09977 86.5125 10.1001C85.5121 11.1005 83.9021 11.1005 80.6819 11.1005H78.7842V11.6696Z" fill="black"/>
</svg>
