<svg width="116" height="11" viewBox="0 0 116 11" fill="none" xmlns="http://www.w3.org/2000/svg">
<path opacity="0.3" d="M4.704 10.3864C1.722 10.3864 3.94881e-06 7.97844 3.94881e-06 5.16444C3.94881e-06 2.33644 1.722 -0.00156283 4.704 -0.00156283C7.714 -0.00156283 9.422 2.30844 9.422 5.16444C9.422 6.77444 8.946 8.06244 7.994 9.04244L9.408 10.0784L8.75 10.9464L7.196 9.70044C6.454 10.1624 5.628 10.3864 4.704 10.3864ZM4.718 1.16044C2.422 1.16044 1.33 3.07844 1.33 5.16444C1.33 7.26444 2.394 9.22444 4.718 9.22444C5.208 9.22444 5.684 9.11244 6.146 8.90244L5.11 8.18844L5.782 7.30644L7 8.28644C7.728 7.53044 8.092 6.49444 8.092 5.16444C8.092 3.07844 7 1.16044 4.718 1.16044ZM19.5413 10.3724C17.3573 10.3724 15.6913 9.35044 15.6913 6.99844V0.180437H16.9933V7.04044C16.9933 8.44044 17.8613 9.21044 19.5413 9.21044C21.2213 9.21044 22.0893 8.44044 22.0893 7.04044V0.180437H23.3913V6.99844C23.3913 9.36444 21.7393 10.3724 19.5413 10.3724ZM29.1974 10.1484L33.0614 0.180437H34.5314L38.3814 10.1484H36.9394L35.8894 7.22244H31.6614L30.5834 10.1484H29.1974ZM32.0814 6.08844H35.4834L34.1254 2.30844L33.8034 1.27244L33.4674 2.30844L32.0814 6.08844ZM44.1889 10.1484V0.180437H48.8089C50.6989 0.180437 51.8609 1.18844 51.8609 2.81244C51.8609 4.08644 51.1609 5.01044 50.0829 5.30444C51.0069 5.48644 51.4969 6.04644 51.6089 6.97044L51.9729 10.1484H50.6569L50.3629 7.48844C50.2369 6.31244 49.7329 5.85044 48.5709 5.85044H45.4909V10.1484H44.1889ZM45.4909 1.31444V4.71644H48.3609C49.7189 4.71644 50.5309 4.05844 50.5309 2.93844C50.5309 1.88844 49.8309 1.31444 48.5849 1.31444H45.4909ZM60.5502 1.31444H57.2182V0.180437H65.1842V1.31444H61.8522V10.1484H60.5502V1.31444ZM78.2696 0.180437V1.21644L72.2076 8.98644H78.4796V10.1484H70.6956V8.88844L76.6036 1.34244H71.0736V0.180437H78.2696ZM84.7069 0.180437H86.1489L91.3989 8.31444V0.180437H92.6309V10.1484H91.1469L85.9389 2.05644V10.1484H84.7069V0.180437ZM100.517 0.180437V10.1484H99.2155V0.180437H100.517ZM106.323 10.1484L110.187 0.180437H111.657L115.507 10.1484H114.065L113.015 7.22244H108.787L107.709 10.1484H106.323ZM109.207 6.08844H112.609L111.251 2.30844L110.929 1.27244L110.593 2.30844L109.207 6.08844Z" fill="black"/>
</svg>
