<svg width="468" height="76" viewBox="0 0 468 76" fill="none" xmlns="http://www.w3.org/2000/svg">
<path d="M26.5998 74.5008L8.59981 7.30078L8.6998 71.6008L10.6998 72.6008L15.8998 73.1008V74.3008H-0.000195161V73.1008L4.5998 72.6008L6.3998 71.6008V4.60078L0.599805 3.40078V2.30078H12.1998L29.2998 66.8008H29.7998L46.6998 2.30078H57.9998V3.40078L52.4998 4.60078V71.6008L54.2998 72.6008L58.8998 73.1008V74.3008H40.5998V73.1008L45.6998 72.6008L47.5998 71.6008V7.30078L29.7998 74.5008H26.5998ZM77.1857 75.8008C68.9857 75.8008 63.6857 64.3008 63.6857 49.7008C63.6857 34.0008 69.9857 23.5008 78.4857 23.5008C86.3857 23.5008 90.0857 32.5008 89.4857 47.2008H67.8857V48.0008C67.8857 62.5008 71.8857 72.7008 78.5857 72.7008C81.7857 72.7008 84.7857 70.4008 88.0857 65.0008L89.2857 65.9008C85.1857 73.2008 81.1857 75.8008 77.1857 75.8008ZM67.9857 45.1008H85.3857C85.5857 37.5008 84.9857 25.3008 77.6857 25.3008C71.6857 25.3008 68.3857 33.4008 67.9857 45.1008ZM116.317 74.3008V73.1008L120.417 72.6008L122.017 71.6008V38.3008C122.017 29.9008 119.117 26.8008 115.217 26.8008C112.017 26.8008 108.717 29.0008 106.217 35.3008L105.617 36.8008V71.6008L107.317 72.6008L111.817 73.1008V74.3008H95.117V73.1008L99.617 72.6008L101.417 71.6008V28.3008L94.617 27.2008V26.1008L104.417 24.7008H105.417L105.117 32.2008L104.917 35.7008H105.117L105.417 34.9008C106.817 30.8008 110.117 23.5008 116.917 23.5008C121.517 23.5008 125.117 26.7008 126.017 33.9008C127.517 29.8008 130.917 23.5008 137.317 23.5008C142.717 23.5008 146.717 27.8008 146.717 37.7008V71.6008L148.217 72.6008L152.217 73.1008V74.3008H136.317V73.1008L140.817 72.6008L142.517 71.6008V38.3008C142.517 30.7008 140.217 26.8008 135.617 26.8008C132.317 26.8008 129.217 28.9008 126.517 35.2008L126.217 36.0008V37.7008V71.6008L127.717 72.6008L131.817 73.1008V74.3008H116.317ZM159.564 3.50078L152.664 2.50078V1.40078L162.764 0.000778198H163.764V33.9008H163.964L164.264 33.3008C166.164 27.9008 169.164 23.6008 173.964 23.6008C181.464 23.6008 186.464 34.0008 186.464 48.6008C186.464 64.4008 180.664 75.8008 170.864 75.8008C167.164 75.8008 163.764 74.1008 160.964 70.8008L159.564 69.2008V3.50078ZM163.764 68.0008L164.164 68.7008C165.864 72.0008 168.664 74.2008 171.764 74.2008C178.164 74.2008 182.264 64.2008 182.264 50.6008C182.264 36.4008 178.164 26.9008 172.064 26.9008C168.464 26.9008 166.264 30.3008 164.464 34.9008L163.764 36.6008V68.0008ZM207.557 75.8008C199.357 75.8008 194.057 64.3008 194.057 49.7008C194.057 34.0008 200.357 23.5008 208.857 23.5008C216.757 23.5008 220.457 32.5008 219.857 47.2008H198.257V48.0008C198.257 62.5008 202.257 72.7008 208.957 72.7008C212.157 72.7008 215.157 70.4008 218.457 65.0008L219.657 65.9008C215.557 73.2008 211.557 75.8008 207.557 75.8008ZM198.357 45.1008H215.757C215.957 37.5008 215.357 25.3008 208.057 25.3008C202.057 25.3008 198.757 33.4008 198.357 45.1008ZM225.488 74.3008V73.1008L230.088 72.6008L231.788 71.6008V28.3008L224.888 27.1008V26.1008L234.788 24.6008H235.788L235.388 32.1008L235.088 39.8008H235.388L237.088 35.1008C239.188 28.8008 241.288 24.9008 247.888 24.9008H248.988V29.7008H246.788C242.588 29.7008 240.388 30.4008 237.888 36.3008L236.088 40.7008V71.6008L238.488 72.6008L244.988 73.1008V74.3008H225.488ZM281.945 75.7008C277.745 75.7008 274.045 73.6008 271.345 70.7008L270.445 57.4008H272.245L272.845 60.6008C274.345 68.8008 277.745 74.2008 282.845 74.2008C287.345 74.2008 289.245 69.9008 289.245 65.3008C289.245 59.1008 285.545 55.6008 283.645 53.7008L276.445 47.3008C274.445 45.4008 270.945 41.8008 270.945 35.3008C270.945 27.8008 275.445 23.6008 281.545 23.6008C285.545 23.6008 288.945 25.6008 291.345 28.2008L292.145 40.3008H290.545L289.945 37.3008C288.545 31.2008 285.845 25.0008 280.745 25.0008C276.845 25.0008 274.545 28.8008 274.545 33.6008C274.545 37.8008 276.145 40.9008 279.045 43.5008L286.245 49.9008C289.145 52.6008 292.945 56.3008 292.945 63.3008C292.945 70.5008 288.845 75.7008 281.945 75.7008ZM311.483 75.1008C308.483 75.1008 305.983 72.5008 305.983 68.0008V27.2008H298.383V25.8008L305.983 25.2008L308.983 9.80078H310.283V25.0008L318.183 24.7008H320.183V27.2008H310.283V68.3008C310.283 70.7008 311.283 72.1008 312.983 72.1008C314.683 72.1008 316.683 70.9008 319.483 67.7008L320.283 66.8008L321.383 67.8008L320.483 68.9008C316.883 73.3008 314.083 75.1008 311.483 75.1008ZM340.283 75.8008C331.883 75.8008 326.283 65.1008 326.283 49.8008C326.283 34.2008 332.083 23.5008 340.583 23.5008C349.083 23.5008 354.683 34.1008 354.683 49.4008C354.683 65.0008 348.683 75.8008 340.283 75.8008ZM330.583 48.0008C330.583 62.7008 334.983 74.0008 340.983 74.0008C346.683 74.0008 350.383 64.5008 350.383 51.1008C350.383 36.4008 345.983 25.3008 339.983 25.3008C334.183 25.3008 330.583 34.9008 330.583 48.0008ZM360.547 74.3008V73.1008L365.147 72.6008L366.847 71.6008V28.3008L359.947 27.1008V26.1008L369.847 24.6008H370.847L370.447 32.1008L370.147 39.8008H370.447L372.147 35.1008C374.247 28.8008 376.347 24.9008 382.947 24.9008H384.047V29.7008H381.847C377.647 29.7008 375.447 30.4008 372.947 36.3008L371.147 40.7008V71.6008L373.547 72.6008L380.047 73.1008V74.3008H360.547ZM397.829 14.2008C395.329 14.2008 393.529 12.3008 393.529 9.80078C393.529 7.20078 395.329 5.40078 397.829 5.40078C400.329 5.40078 402.129 7.20078 402.129 9.80078C402.129 12.3008 400.329 14.2008 397.829 14.2008ZM390.029 27.1008V26.1008L400.029 24.6008H400.929V71.6008L402.629 72.6008L406.929 73.1008V74.3008H390.429V73.1008L395.029 72.6008L396.729 71.6008V28.2008L390.029 27.1008ZM425.623 75.8008C417.423 75.8008 412.123 64.3008 412.123 49.7008C412.123 34.0008 418.423 23.5008 426.923 23.5008C434.823 23.5008 438.523 32.5008 437.923 47.2008H416.323V48.0008C416.323 62.5008 420.323 72.7008 427.023 72.7008C430.223 72.7008 433.223 70.4008 436.523 65.0008L437.723 65.9008C433.623 73.2008 429.623 75.8008 425.623 75.8008ZM416.423 45.1008H433.823C434.023 37.5008 433.423 25.3008 426.123 25.3008C420.123 25.3008 416.823 33.4008 416.423 45.1008ZM456.945 75.7008C452.745 75.7008 449.045 73.6008 446.345 70.7008L445.445 57.4008H447.245L447.845 60.6008C449.345 68.8008 452.745 74.2008 457.845 74.2008C462.345 74.2008 464.245 69.9008 464.245 65.3008C464.245 59.1008 460.545 55.6008 458.645 53.7008L451.445 47.3008C449.445 45.4008 445.945 41.8008 445.945 35.3008C445.945 27.8008 450.445 23.6008 456.545 23.6008C460.545 23.6008 463.945 25.6008 466.345 28.2008L467.145 40.3008H465.545L464.945 37.3008C463.545 31.2008 460.845 25.0008 455.745 25.0008C451.845 25.0008 449.545 28.8008 449.545 33.6008C449.545 37.8008 451.145 40.9008 454.045 43.5008L461.245 49.9008C464.145 52.6008 467.945 56.3008 467.945 63.3008C467.945 70.5008 463.845 75.7008 456.945 75.7008Z" fill="#222222"/>
</svg>
