<svg width="390" height="388" viewBox="0 0 390 388" fill="none" xmlns="http://www.w3.org/2000/svg">
<path d="M1.79988 44.5781V43.8581L4.49988 43.5581L5.57988 42.9581V2.99812L4.49988 2.39812L1.79988 2.09812V1.37812H22.3799V1.73812L24.0599 11.6981H23.1599L19.5599 2.57812H8.51988V21.8381H14.0399L18.8999 21.1181H19.6799V23.6381H18.8999L14.0399 22.9181H8.51988V43.3781H19.8599L23.4599 34.0781H24.3599L22.6799 44.2181V44.5781H1.79988ZM34.4132 44.9381L26.4932 16.3781L24.3932 15.6581V14.9981H33.8732V15.6581L29.5532 16.3181V17.4581L35.4932 40.7381H35.7332L41.7932 17.4581V16.3181L38.1932 15.6581V14.9981H45.3332V15.6581L43.4132 16.3781L35.5532 44.9381H34.4132ZM55.5529 45.4781C50.6329 45.4781 47.4529 38.5781 47.4529 29.8181C47.4529 20.3981 51.2329 14.0981 56.3329 14.0981C61.0729 14.0981 63.2929 19.4981 62.9329 28.3181H49.9729V28.7981C49.9729 37.4981 52.3729 43.6181 56.3929 43.6181C58.3129 43.6181 60.1129 42.2381 62.0929 38.9981L62.8129 39.5381C60.3529 43.9181 57.9529 45.4781 55.5529 45.4781ZM50.0329 27.0581H60.4729C60.5929 22.4981 60.2329 15.1781 55.8529 15.1781C52.2529 15.1781 50.2729 20.0381 50.0329 27.0581ZM66.3116 44.5781V43.8581L69.0716 43.5581L70.0916 42.9581V16.9781L65.9516 16.2581V15.6581L71.8916 14.7581H72.4916L72.2516 19.2581L72.0716 23.8781H72.2516L73.2716 21.0581C74.5316 17.2781 75.7916 14.9381 79.7516 14.9381H80.4116V17.8181H79.0916C76.5716 17.8181 75.2516 18.2381 73.7516 21.7781L72.6716 24.4181V42.9581L74.1116 43.5581L78.0116 43.8581V44.5781H66.3116ZM84.4602 56.5781V54.1781H85.1802L90.3402 54.4181C91.5402 53.2181 92.2602 51.5981 92.8002 49.3781L94.1202 44.3981L86.0802 16.3781L83.9802 15.6581V14.9981H93.5202V15.6581L89.2002 16.3181V17.4581L95.3202 40.3181H95.6202L101.8 17.4581V16.3181L98.2002 15.6581V14.9981H105.4V15.6581L103.42 16.3781L94.3602 48.7781C92.6202 54.7181 90.0402 56.5781 85.3602 56.5781H84.4602ZM124.375 57.4181C119.695 57.4181 116.695 54.5381 116.695 50.1581C116.695 46.9781 118.255 44.3981 120.295 42.5381L121.135 41.6981C119.455 40.7981 119.335 38.5781 120.595 35.5181L121.495 33.0581C119.455 31.3181 118.255 28.3181 118.255 24.5981C118.255 18.5381 121.375 14.0981 126.055 14.0981C127.555 14.0981 128.875 14.5781 130.015 15.4181C131.455 14.4581 133.135 13.7381 135.115 13.3781H135.655V15.7781H130.495C132.415 17.5181 133.555 20.4581 133.555 24.1181C133.555 30.1781 130.435 34.6181 125.755 34.6181C124.495 34.6181 123.295 34.2581 122.335 33.6581L121.855 35.4581C121.255 37.7981 121.195 38.8181 121.495 40.0781H128.815C133.015 40.0781 135.295 42.7181 135.295 46.7381C135.295 52.4981 130.615 57.4181 124.375 57.4181ZM118.975 49.6781C118.975 53.7581 121.735 56.2781 125.275 56.2781C129.655 56.2781 132.955 52.3781 132.955 47.6981C132.955 44.5781 131.455 42.2381 127.795 42.2381H123.595C122.935 42.2381 122.335 42.1781 121.855 41.9981L121.375 42.7181C120.175 44.4581 118.975 47.0381 118.975 49.6781ZM120.775 23.9981C120.775 29.7581 123.115 33.5381 126.175 33.5381C129.115 33.5381 131.095 30.0581 131.095 24.6581C131.095 19.0181 128.815 15.1181 125.695 15.1181C122.635 15.1181 120.775 18.7781 120.775 23.9981ZM147.311 45.4781C142.391 45.4781 139.211 38.5781 139.211 29.8181C139.211 20.3981 142.991 14.0981 148.091 14.0981C152.831 14.0981 155.051 19.4981 154.691 28.3181H141.731V28.7981C141.731 37.4981 144.131 43.6181 148.151 43.6181C150.071 43.6181 151.871 42.2381 153.851 38.9981L154.571 39.5381C152.111 43.9181 149.711 45.4781 147.311 45.4781ZM141.791 27.0581H152.231C152.351 22.4981 151.991 15.1781 147.611 15.1781C144.011 15.1781 142.031 20.0381 141.791 27.0581ZM170.789 44.5781V43.8581L173.249 43.5581L174.209 42.9581V22.9781C174.209 17.9381 172.469 16.0781 170.129 16.0781C168.209 16.0781 166.229 17.3981 164.729 21.1781L164.369 22.0781V42.9581L165.389 43.5581L168.089 43.8581V44.5781H158.069V43.8581L160.769 43.5581L161.849 42.9581V16.9781L157.769 16.3181V15.6581L163.649 14.8181H164.249L164.069 19.3181L163.949 21.4181H164.069L164.249 20.9381C165.089 18.4781 167.069 14.0981 171.149 14.0981C173.909 14.0981 176.069 16.0181 176.609 20.3381C177.509 17.8781 179.549 14.0981 183.389 14.0981C186.629 14.0981 189.029 16.6781 189.029 22.6181V42.9581L189.929 43.5581L192.329 43.8581V44.5781H182.789V43.8581L185.489 43.5581L186.509 42.9581V22.9781C186.509 18.4181 185.129 16.0781 182.369 16.0781C180.389 16.0781 178.529 17.3381 176.909 21.1181L176.729 21.5981V22.6181V42.9581L177.629 43.5581L180.089 43.8581V44.5781H170.789ZM209.091 8.51812C207.591 8.51812 206.511 7.37812 206.511 5.87812C206.511 4.31812 207.591 3.23812 209.091 3.23812C210.591 3.23812 211.671 4.31812 211.671 5.87812C211.671 7.37812 210.591 8.51812 209.091 8.51812ZM204.411 16.2581V15.6581L210.411 14.7581H210.951V42.9581L211.971 43.5581L214.551 43.8581V44.5781H204.651V43.8581L207.411 43.5581L208.431 42.9581V16.9181L204.411 16.2581ZM225.108 45.4181C222.588 45.4181 220.368 44.1581 218.748 42.4181L218.208 34.4381H219.288L219.648 36.3581C220.548 41.2781 222.588 44.5181 225.648 44.5181C228.348 44.5181 229.488 41.9381 229.488 39.1781C229.488 35.4581 227.268 33.3581 226.128 32.2181L221.808 28.3781C220.608 27.2381 218.508 25.0781 218.508 21.1781C218.508 16.6781 221.208 14.1581 224.868 14.1581C227.268 14.1581 229.308 15.3581 230.748 16.9181L231.228 24.1781H230.268L229.908 22.3781C229.068 18.7181 227.448 14.9981 224.388 14.9981C222.048 14.9981 220.668 17.2781 220.668 20.1581C220.668 22.6781 221.628 24.5381 223.368 26.0981L227.688 29.9381C229.428 31.5581 231.708 33.7781 231.708 37.9781C231.708 42.2981 229.248 45.4181 225.108 45.4181ZM250.183 45.1181C247.483 45.1181 245.383 42.6581 245.383 38.6381C245.383 34.0181 248.143 29.8181 254.383 27.2981L257.503 25.9781V23.4581C257.503 17.9381 255.883 15.2981 253.063 15.2981C250.003 15.2981 247.903 18.5381 248.863 24.4781H246.163C245.923 18.3581 249.163 14.0981 253.663 14.0981C258.103 14.0981 260.023 17.9981 260.023 24.2381V42.8981L260.983 43.3181L263.203 43.6181L263.263 44.2781L258.283 44.6981H257.563L257.683 41.1581L257.863 36.7781H257.683C256.183 41.6981 253.423 45.1181 250.183 45.1181ZM247.723 38.0381C247.723 41.3981 249.343 43.0781 251.263 43.0781C253.843 43.0781 256.243 40.0781 257.503 35.5781V27.0581L255.283 28.0181C252.283 29.2781 247.723 32.3981 247.723 38.0381ZM283.467 45.4181C280.947 45.4181 278.727 44.1581 277.107 42.4181L276.567 34.4381H277.647L278.007 36.3581C278.907 41.2781 280.947 44.5181 284.007 44.5181C286.707 44.5181 287.847 41.9381 287.847 39.1781C287.847 35.4581 285.627 33.3581 284.487 32.2181L280.167 28.3781C278.967 27.2381 276.867 25.0781 276.867 21.1781C276.867 16.6781 279.567 14.1581 283.227 14.1581C285.627 14.1581 287.667 15.3581 289.107 16.9181L289.587 24.1781H288.627L288.267 22.3781C287.427 18.7181 285.807 14.9981 282.747 14.9981C280.407 14.9981 279.027 17.2781 279.027 20.1581C279.027 22.6781 279.987 24.5381 281.727 26.0981L286.047 29.9381C287.787 31.5581 290.067 33.7781 290.067 37.9781C290.067 42.2981 287.607 45.4181 283.467 45.4181ZM298.447 8.51812C296.947 8.51812 295.867 7.37812 295.867 5.87812C295.867 4.31812 296.947 3.23812 298.447 3.23812C299.947 3.23812 301.027 4.31812 301.027 5.87812C301.027 7.37812 299.947 8.51812 298.447 8.51812ZM293.767 16.2581V15.6581L299.767 14.7581H300.307V42.9581L301.327 43.5581L303.907 43.8581V44.5781H294.007V43.8581L296.767 43.5581L297.787 42.9581V16.9181L293.767 16.2581ZM307.302 44.5781V43.8581L310.062 43.5581L311.082 42.9581V2.15812L306.942 1.49812V0.838123L313.002 -0.00187683H313.602V42.9581L314.502 43.5581L316.962 43.8581V44.5781H307.302ZM328.248 45.4781C323.328 45.4781 320.148 38.5781 320.148 29.8181C320.148 20.3981 323.928 14.0981 329.028 14.0981C333.768 14.0981 335.988 19.4981 335.628 28.3181H322.668V28.7981C322.668 37.4981 325.068 43.6181 329.088 43.6181C331.008 43.6181 332.808 42.2381 334.788 38.9981L335.508 39.5381C333.048 43.9181 330.648 45.4781 328.248 45.4781ZM322.728 27.0581H333.168C333.288 22.4981 332.928 15.1781 328.548 15.1781C324.948 15.1781 322.968 20.0381 322.728 27.0581ZM351.607 44.5781V43.8581L354.307 43.5581L355.327 42.9581V22.9781C355.327 18.4181 353.947 16.0781 351.187 16.0781C349.207 16.0781 347.347 17.3381 345.727 21.1181L345.307 22.1381V42.9581L346.327 43.5581L349.027 43.8581V44.5781H339.007V43.8581L341.707 43.5581L342.787 42.9581V16.9781L338.707 16.3181V15.6581L344.587 14.8181H345.187L345.007 19.3181L344.887 21.4181H345.007L345.247 20.8181C346.087 18.3581 348.127 14.0981 352.207 14.0981C355.447 14.0981 357.847 16.6781 357.847 22.6181V42.9581L358.747 43.5581L361.147 43.8581V44.5781H351.607ZM369.686 45.0581C367.886 45.0581 366.386 43.4981 366.386 40.7981V16.3181H361.826V15.4781L366.386 15.1181L368.186 5.87812H368.966V14.9981L373.706 14.8181H374.906V16.3181H368.966V40.9781C368.966 42.4181 369.566 43.2581 370.586 43.2581C371.606 43.2581 372.806 42.5381 374.486 40.6181L374.966 40.0781L375.626 40.6781L375.086 41.3381C372.926 43.9781 371.246 45.0581 369.686 45.0581ZM8.27988 111.058C6.47988 111.058 4.97988 109.498 4.97988 106.798V82.3181H0.419883V81.4781L4.97988 81.1181L6.77988 71.8781H7.55988V80.9981L12.2999 80.8181H13.4999V82.3181H7.55988V106.978C7.55988 108.418 8.15988 109.258 9.17988 109.258C10.1999 109.258 11.3999 108.538 13.0799 106.618L13.5599 106.078L14.2199 106.678L13.6799 107.338C11.5199 109.978 9.83988 111.058 8.27988 111.058ZM25.2599 111.478C20.3399 111.478 17.1599 104.578 17.1599 95.8181C17.1599 86.3981 20.9399 80.0981 26.0399 80.0981C30.7799 80.0981 32.9999 85.4981 32.6399 94.3181H19.6799V94.7981C19.6799 103.498 22.0799 109.618 26.0999 109.618C28.0199 109.618 29.8199 108.238 31.7999 104.998L32.5199 105.538C30.0599 109.918 27.6599 111.478 25.2599 111.478ZM19.7399 93.0581H30.1799C30.2999 88.4981 29.9399 81.1781 25.5599 81.1781C21.9599 81.1781 19.9799 86.0381 19.7399 93.0581ZM44.053 111.418C41.533 111.418 39.313 110.158 37.693 108.418L37.153 100.438H38.233L38.593 102.358C39.493 107.278 41.533 110.518 44.593 110.518C47.293 110.518 48.433 107.938 48.433 105.178C48.433 101.458 46.213 99.3581 45.073 98.2181L40.753 94.3781C39.553 93.2381 37.453 91.0781 37.453 87.1781C37.453 82.6781 40.153 80.1581 43.813 80.1581C46.213 80.1581 48.253 81.3581 49.693 82.9181L50.173 90.1781H49.213L48.853 88.3781C48.013 84.7181 46.393 80.9981 43.333 80.9981C40.993 80.9981 39.613 83.2781 39.613 86.1581C39.613 88.6781 40.573 90.5381 42.313 92.0981L46.633 95.9381C48.373 97.5581 50.653 99.7781 50.653 103.978C50.653 108.298 48.193 111.418 44.053 111.418ZM61.776 111.058C59.976 111.058 58.476 109.498 58.476 106.798V82.3181H53.916V81.4781L58.476 81.1181L60.276 71.8781H61.056V80.9981L65.796 80.8181H66.996V82.3181H61.056V106.978C61.056 108.418 61.656 109.258 62.676 109.258C63.696 109.258 64.896 108.538 66.576 106.618L67.056 106.078L67.716 106.678L67.176 107.338C65.016 109.978 63.336 111.058 61.776 111.058ZM76.2763 111.118C73.5763 111.118 71.4763 108.658 71.4763 104.638C71.4763 100.018 74.2363 95.8181 80.4763 93.2981L83.5963 91.9781V89.4581C83.5963 83.9381 81.9763 81.2981 79.1563 81.2981C76.0963 81.2981 73.9963 84.5381 74.9563 90.4781H72.2563C72.0163 84.3581 75.2563 80.0981 79.7563 80.0981C84.1963 80.0981 86.1163 83.9981 86.1163 90.2381V108.898L87.0763 109.318L89.2963 109.618L89.3563 110.278L84.3763 110.698H83.6563L83.7763 107.158L83.9563 102.778H83.7763C82.2763 107.698 79.5163 111.118 76.2763 111.118ZM73.8163 104.038C73.8163 107.398 75.4363 109.078 77.3563 109.078C79.9363 109.078 82.3363 106.078 83.5963 101.578V93.0581L81.3763 94.0181C78.3763 95.2781 73.8163 98.3981 73.8163 104.038ZM105.75 110.578V109.858L108.21 109.558L109.17 108.958V88.9781C109.17 83.9381 107.43 82.0781 105.09 82.0781C103.17 82.0781 101.19 83.3981 99.6904 87.1781L99.3304 88.0781V108.958L100.35 109.558L103.05 109.858V110.578H93.0304V109.858L95.7304 109.558L96.8104 108.958V82.9781L92.7304 82.3181V81.6581L98.6104 80.8181H99.2104L99.0304 85.3181L98.9104 87.4181H99.0304L99.2104 86.9381C100.05 84.4781 102.03 80.0981 106.11 80.0981C108.87 80.0981 111.03 82.0181 111.57 86.3381C112.47 83.8781 114.51 80.0981 118.35 80.0981C121.59 80.0981 123.99 82.6781 123.99 88.6181V108.958L124.89 109.558L127.29 109.858V110.578H117.75V109.858L120.45 109.558L121.47 108.958V88.9781C121.47 84.4181 120.09 82.0781 117.33 82.0781C115.35 82.0781 113.49 83.3381 111.87 87.1181L111.69 87.5981V88.6181V108.958L112.59 109.558L115.05 109.858V110.578H105.75ZM138.639 111.478C133.719 111.478 130.539 104.578 130.539 95.8181C130.539 86.3981 134.319 80.0981 139.419 80.0981C144.159 80.0981 146.379 85.4981 146.019 94.3181H133.059V94.7981C133.059 103.498 135.459 109.618 139.479 109.618C141.399 109.618 143.199 108.238 145.179 104.998L145.899 105.538C143.439 109.918 141.039 111.478 138.639 111.478ZM133.119 93.0581H143.559C143.679 88.4981 143.319 81.1781 138.939 81.1781C135.339 81.1781 133.359 86.0381 133.119 93.0581ZM161.998 110.578V109.858L164.698 109.558L165.718 108.958V88.9781C165.718 84.4181 164.338 82.0781 161.578 82.0781C159.598 82.0781 157.738 83.3381 156.118 87.1181L155.698 88.1381V108.958L156.718 109.558L159.418 109.858V110.578H149.398V109.858L152.098 109.558L153.178 108.958V82.9781L149.098 82.3181V81.6581L154.978 80.8181H155.578L155.398 85.3181L155.278 87.4181H155.398L155.638 86.8181C156.478 84.3581 158.518 80.0981 162.598 80.0981C165.838 80.0981 168.238 82.6781 168.238 88.6181V108.958L169.138 109.558L171.538 109.858V110.578H161.998ZM180.077 111.058C178.277 111.058 176.777 109.498 176.777 106.798V82.3181H172.217V81.4781L176.777 81.1181L178.577 71.8781H179.357V80.9981L184.097 80.8181H185.297V82.3181H179.357V106.978C179.357 108.418 179.957 109.258 180.977 109.258C181.997 109.258 183.197 108.538 184.877 106.618L185.357 106.078L186.017 106.678L185.477 107.338C183.317 109.978 181.637 111.058 180.077 111.058ZM204.569 111.058C202.769 111.058 201.269 109.498 201.269 106.798V82.3181H196.709V81.4781L201.269 81.1181L203.069 71.8781H203.849V80.9981L208.589 80.8181H209.789V82.3181H203.849V106.978C203.849 108.418 204.449 109.258 205.469 109.258C206.489 109.258 207.689 108.538 209.369 106.618L209.849 106.078L210.509 106.678L209.969 107.338C207.809 109.978 206.129 111.058 204.569 111.058ZM221.849 111.478C216.809 111.478 213.449 105.058 213.449 95.8781C213.449 86.5181 216.929 80.0981 222.029 80.0981C227.129 80.0981 230.489 86.4581 230.489 95.6381C230.489 104.998 226.889 111.478 221.849 111.478ZM216.029 94.7981C216.029 103.618 218.669 110.398 222.269 110.398C225.689 110.398 227.909 104.698 227.909 96.6581C227.909 87.8381 225.269 81.1781 221.669 81.1781C218.189 81.1781 216.029 86.9381 216.029 94.7981ZM255.982 110.578V109.858L258.682 109.558L259.702 108.958V88.9781C259.702 84.4181 258.322 82.0781 255.562 82.0781C253.582 82.0781 251.722 83.3381 250.102 87.1181L249.682 88.1381V108.958L250.702 109.558L253.402 109.858V110.578H243.382V109.858L246.082 109.558L247.162 108.958V82.9781L243.082 82.3181V81.6581L248.962 80.8181H249.562L249.382 85.3181L249.262 87.4181H249.382L249.622 86.8181C250.462 84.3581 252.502 80.0981 256.582 80.0981C259.822 80.0981 262.222 82.6781 262.222 88.6181V108.958L263.122 109.558L265.522 109.858V110.578H255.982ZM273.737 111.118C271.037 111.118 268.937 108.658 268.937 104.638C268.937 100.018 271.697 95.8181 277.937 93.2981L281.057 91.9781V89.4581C281.057 83.9381 279.437 81.2981 276.617 81.2981C273.557 81.2981 271.457 84.5381 272.417 90.4781H269.717C269.477 84.3581 272.717 80.0981 277.217 80.0981C281.657 80.0981 283.577 83.9981 283.577 90.2381V108.898L284.537 109.318L286.757 109.618L286.817 110.278L281.837 110.698H281.117L281.237 107.158L281.417 102.778H281.237C279.737 107.698 276.977 111.118 273.737 111.118ZM271.277 104.038C271.277 107.398 272.897 109.078 274.817 109.078C277.397 109.078 279.797 106.078 281.057 101.578V93.0581L278.837 94.0181C275.837 95.2781 271.277 98.3981 271.277 104.038ZM295.389 111.058C293.589 111.058 292.089 109.498 292.089 106.798V82.3181H287.529V81.4781L292.089 81.1181L293.889 71.8781H294.669V80.9981L299.409 80.8181H300.609V82.3181H294.669V106.978C294.669 108.418 295.269 109.258 296.289 109.258C297.309 109.258 298.509 108.538 300.189 106.618L300.669 106.078L301.329 106.678L300.789 107.338C298.629 109.978 296.949 111.058 295.389 111.058ZM313.43 111.238C309.89 111.238 307.79 108.058 307.79 101.938V82.7981L303.95 82.1981V81.5381L309.65 80.8181H310.25V101.878C310.25 106.618 311.75 109.378 314.33 109.378C317.15 109.378 318.71 105.958 319.61 102.838L320.03 101.338V82.8581L316.01 82.1981V81.5381L321.89 80.8181H322.55V108.838L323.51 109.318L325.73 109.558L325.79 110.278L320.81 110.698H320.09L320.27 107.098L320.51 101.998H320.33L320.09 102.958C319.07 106.978 317.51 111.238 313.43 111.238ZM329.515 110.578V109.858L332.275 109.558L333.295 108.958V82.9781L329.155 82.2581V81.6581L335.095 80.7581H335.695L335.455 85.2581L335.275 89.8781H335.455L336.475 87.0581C337.735 83.2781 338.995 80.9381 342.955 80.9381H343.615V83.8181H342.295C339.775 83.8181 338.455 84.2381 336.955 87.7781L335.875 90.4181V108.958L337.315 109.558L341.215 109.858V110.578H329.515ZM354.381 111.478C349.461 111.478 346.281 104.578 346.281 95.8181C346.281 86.3981 350.061 80.0981 355.161 80.0981C359.901 80.0981 362.121 85.4981 361.761 94.3181H348.801V94.7981C348.801 103.498 351.201 109.618 355.221 109.618C357.141 109.618 358.941 108.238 360.921 104.998L361.641 105.538C359.181 109.918 356.781 111.478 354.381 111.478ZM348.861 93.0581H359.301C359.421 88.4981 359.061 81.1781 354.681 81.1781C351.081 81.1781 349.101 86.0381 348.861 93.0581ZM372.021 68.3381C371.701 69.8581 371.281 71.4381 370.761 73.0781C370.281 74.7181 369.741 76.3381 369.141 77.9381C368.541 79.5381 367.921 81.0381 367.281 82.4381H364.821C365.221 81.3581 365.581 80.1981 365.901 78.9581C366.261 77.6781 366.581 76.3781 366.861 75.0581C367.181 73.7381 367.441 72.4581 367.641 71.2181C367.881 69.9781 368.081 68.8181 368.241 67.7381H371.601L372.021 68.3381ZM382.783 111.418C380.263 111.418 378.043 110.158 376.423 108.418L375.883 100.438H376.963L377.323 102.358C378.223 107.278 380.263 110.518 383.323 110.518C386.023 110.518 387.163 107.938 387.163 105.178C387.163 101.458 384.943 99.3581 383.803 98.2181L379.483 94.3781C378.283 93.2381 376.183 91.0781 376.183 87.1781C376.183 82.6781 378.883 80.1581 382.543 80.1581C384.943 80.1581 386.983 81.3581 388.423 82.9181L388.903 90.1781H387.943L387.583 88.3781C386.743 84.7181 385.123 80.9981 382.063 80.9981C379.723 80.9981 378.343 83.2781 378.343 86.1581C378.343 88.6781 379.303 90.5381 381.043 92.0981L385.363 95.9381C387.103 97.5581 389.383 99.7781 389.383 103.978C389.383 108.298 386.923 111.418 382.783 111.418ZM6.95988 177.118C4.25988 177.118 2.15988 174.658 2.15988 170.638C2.15988 166.018 4.91988 161.818 11.1599 159.298L14.2799 157.978V155.458C14.2799 149.938 12.6599 147.298 9.83988 147.298C6.77988 147.298 4.67988 150.538 5.63988 156.478H2.93988C2.69988 150.358 5.93988 146.098 10.4399 146.098C14.8799 146.098 16.7999 149.998 16.7999 156.238V174.898L17.7599 175.318L19.9799 175.618L20.0399 176.278L15.0599 176.698H14.3399L14.4599 173.158L14.6399 168.778H14.4599C12.9599 173.698 10.1999 177.118 6.95988 177.118ZM4.49988 170.038C4.49988 173.398 6.11988 175.078 8.03988 175.078C10.6199 175.078 13.0199 172.078 14.2799 167.578V159.058L12.0599 160.018C9.05988 161.278 4.49988 164.398 4.49988 170.038ZM23.7139 176.578V175.858L26.4739 175.558L27.4939 174.958V148.978L23.3539 148.258V147.658L29.2939 146.758H29.8939L29.6539 151.258L29.4739 155.878H29.6539L30.6739 153.058C31.9339 149.278 33.1939 146.938 37.1539 146.938H37.8139V149.818H36.4939C33.9739 149.818 32.6539 150.238 31.1539 153.778L30.0739 156.418V174.958L31.5139 175.558L35.4139 175.858V176.578H23.7139ZM48.8854 177.058C47.0854 177.058 45.5854 175.498 45.5854 172.798V148.318H41.0254V147.478L45.5854 147.118L47.3854 137.878H48.1654V146.998L52.9054 146.818H54.1054V148.318H48.1654V172.978C48.1654 174.418 48.7654 175.258 49.7854 175.258C50.8054 175.258 52.0054 174.538 53.6854 172.618L54.1654 172.078L54.8254 172.678L54.2854 173.338C52.1254 175.978 50.4454 177.058 48.8854 177.058ZM62.6657 140.518C61.1657 140.518 60.0857 139.378 60.0857 137.878C60.0857 136.318 61.1657 135.238 62.6657 135.238C64.1657 135.238 65.2457 136.318 65.2457 137.878C65.2457 139.378 64.1657 140.518 62.6657 140.518ZM57.9857 148.258V147.658L63.9857 146.758H64.5257V174.958L65.5457 175.558L68.1257 175.858V176.578H58.2257V175.858L60.9857 175.558L62.0057 174.958V148.918L57.9857 148.258ZM78.6819 177.418C76.1619 177.418 73.9419 176.158 72.3219 174.418L71.7819 166.438H72.8619L73.2219 168.358C74.1219 173.278 76.1619 176.518 79.2219 176.518C81.9219 176.518 83.0619 173.938 83.0619 171.178C83.0619 167.458 80.8419 165.358 79.7019 164.218L75.3819 160.378C74.1819 159.238 72.0819 157.078 72.0819 153.178C72.0819 148.678 74.7819 146.158 78.4419 146.158C80.8419 146.158 82.8819 147.358 84.3219 148.918L84.8019 156.178H83.8419L83.4819 154.378C82.6419 150.718 81.0219 146.998 77.9619 146.998C75.6219 146.998 74.2419 149.278 74.2419 152.158C74.2419 154.678 75.2019 156.538 76.9419 158.098L81.2619 161.938C83.0019 163.558 85.2819 165.778 85.2819 169.978C85.2819 174.298 82.8219 177.418 78.6819 177.418ZM96.4049 177.058C94.6049 177.058 93.1049 175.498 93.1049 172.798V148.318H88.5449V147.478L93.1049 147.118L94.9049 137.878H95.6849V146.998L100.425 146.818H101.625V148.318H95.6849V172.978C95.6849 174.418 96.2849 175.258 97.3049 175.258C98.3249 175.258 99.5249 174.538 101.205 172.618L101.685 172.078L102.345 172.678L101.805 173.338C99.6449 175.978 97.9649 177.058 96.4049 177.058ZM105.745 176.578V175.858L108.505 175.558L109.525 174.958V148.978L105.385 148.258V147.658L111.325 146.758H111.925L111.685 151.258L111.505 155.878H111.685L112.705 153.058C113.965 149.278 115.225 146.938 119.185 146.938H119.845V149.818H118.525C116.005 149.818 114.685 150.238 113.185 153.778L112.105 156.418V174.958L113.545 175.558L117.445 175.858V176.578H105.745ZM123.894 188.578V186.178H124.614L129.774 186.418C130.974 185.218 131.694 183.598 132.234 181.378L133.554 176.398L125.514 148.378L123.414 147.658V146.998H132.954V147.658L128.634 148.318V149.458L134.754 172.318H135.054L141.234 149.458V148.318L137.634 147.658V146.998H144.834V147.658L142.854 148.378L133.794 180.778C132.054 186.718 129.474 188.578 124.794 188.578H123.894ZM143.609 179.758C145.889 179.578 147.269 178.258 147.329 175.978H147.089C146.729 176.518 146.069 176.818 145.409 176.818C144.149 176.818 143.129 175.798 143.129 174.238C143.129 172.678 144.209 171.418 145.709 171.418C147.209 171.418 148.529 172.618 148.529 175.198C148.529 178.198 146.789 180.718 143.609 180.778V179.758ZM160.816 176.578V175.858L163.516 175.558L164.596 174.958V134.098L160.516 133.498V132.838L166.516 131.998H167.116V152.638C168.016 150.178 170.056 146.098 174.016 146.098C177.256 146.098 179.656 148.678 179.656 154.618V174.958L180.556 175.558L182.956 175.858V176.578H173.416V175.858L176.116 175.558L177.136 174.958V154.978C177.136 150.418 175.756 148.078 172.996 148.078C171.016 148.078 169.156 149.338 167.536 153.118L167.116 154.138V174.958L168.136 175.558L170.836 175.858V176.578H160.816ZM194.544 177.478C189.504 177.478 186.144 171.058 186.144 161.878C186.144 152.518 189.624 146.098 194.724 146.098C199.824 146.098 203.184 152.458 203.184 161.638C203.184 170.998 199.584 177.478 194.544 177.478ZM188.724 160.798C188.724 169.618 191.364 176.398 194.964 176.398C198.384 176.398 200.604 170.698 200.604 162.658C200.604 153.838 197.964 147.178 194.364 147.178C190.884 147.178 188.724 152.938 188.724 160.798ZM206.169 176.578V175.858L208.929 175.558L209.949 174.958V134.158L205.809 133.498V132.838L211.869 131.998H212.469V174.958L213.369 175.558L215.829 175.858V176.578H206.169ZM226.515 177.418C222.015 177.418 219.015 171.178 219.015 162.418C219.015 152.938 222.495 146.098 228.375 146.098C229.875 146.098 231.315 146.578 232.635 147.538V134.158L227.295 133.498V132.838L234.495 131.998H235.215V174.898L236.115 175.318L238.395 175.558V176.278L233.355 176.698H232.635L232.695 173.098L232.755 171.238H232.515L232.335 171.598C231.195 174.838 229.395 177.418 226.515 177.418ZM221.535 161.218C221.535 169.738 223.995 175.438 227.655 175.438C229.815 175.438 231.135 173.398 232.215 170.638L232.635 169.558V150.778L232.395 150.358C231.375 148.378 229.695 147.058 227.835 147.058C223.995 147.058 221.535 153.058 221.535 161.218ZM246.709 140.518C245.209 140.518 244.129 139.378 244.129 137.878C244.129 136.318 245.209 135.238 246.709 135.238C248.209 135.238 249.289 136.318 249.289 137.878C249.289 139.378 248.209 140.518 246.709 140.518ZM242.029 148.258V147.658L248.029 146.758H248.569V174.958L249.589 175.558L252.169 175.858V176.578H242.269V175.858L245.029 175.558L246.049 174.958V148.918L242.029 148.258ZM268.462 176.578V175.858L271.162 175.558L272.182 174.958V154.978C272.182 150.418 270.802 148.078 268.042 148.078C266.062 148.078 264.202 149.338 262.582 153.118L262.162 154.138V174.958L263.182 175.558L265.882 175.858V176.578H255.862V175.858L258.562 175.558L259.642 174.958V148.978L255.562 148.318V147.658L261.442 146.818H262.042L261.862 151.318L261.742 153.418H261.862L262.102 152.818C262.942 150.358 264.982 146.098 269.062 146.098C272.302 146.098 274.702 148.678 274.702 154.618V174.958L275.602 175.558L278.002 175.858V176.578H268.462ZM288.848 189.418C284.168 189.418 281.168 186.538 281.168 182.158C281.168 178.978 282.728 176.398 284.768 174.538L285.608 173.698C283.928 172.798 283.808 170.578 285.068 167.518L285.968 165.058C283.928 163.318 282.728 160.318 282.728 156.598C282.728 150.538 285.848 146.098 290.528 146.098C292.028 146.098 293.348 146.578 294.488 147.418C295.928 146.458 297.608 145.738 299.588 145.378H300.128V147.778H294.968C296.888 149.518 298.028 152.458 298.028 156.118C298.028 162.178 294.908 166.618 290.228 166.618C288.968 166.618 287.768 166.258 286.808 165.658L286.328 167.458C285.728 169.798 285.668 170.818 285.968 172.078H293.288C297.488 172.078 299.768 174.718 299.768 178.738C299.768 184.498 295.088 189.418 288.848 189.418ZM283.448 181.678C283.448 185.758 286.208 188.278 289.748 188.278C294.128 188.278 297.428 184.378 297.428 179.698C297.428 176.578 295.928 174.238 292.268 174.238H288.068C287.408 174.238 286.808 174.178 286.328 173.998L285.848 174.718C284.648 176.458 283.448 179.038 283.448 181.678ZM285.248 155.998C285.248 161.758 287.588 165.538 290.648 165.538C293.588 165.538 295.568 162.058 295.568 156.658C295.568 151.018 293.288 147.118 290.168 147.118C287.108 147.118 285.248 150.778 285.248 155.998ZM10.2599 243.478C5.75988 243.478 2.15988 237.598 2.15988 227.938C2.15988 218.518 5.81988 212.098 10.9199 212.098C15.1799 212.098 17.5199 216.658 17.2199 223.438H14.4599C15.4199 217.138 13.7399 213.178 10.5599 213.178C6.59988 213.178 4.67988 219.178 4.67988 226.978C4.67988 236.518 7.49988 241.618 11.0999 241.618C13.0799 241.618 14.8799 239.998 16.6799 237.058L17.3999 237.598C15.2999 241.438 12.8999 243.478 10.2599 243.478ZM29.6544 243.478C24.7344 243.478 21.5544 236.578 21.5544 227.818C21.5544 218.398 25.3344 212.098 30.4344 212.098C35.1744 212.098 37.3944 217.498 37.0344 226.318H24.0744V226.798C24.0744 235.498 26.4744 241.618 30.4944 241.618C32.4144 241.618 34.2144 240.238 36.1944 236.998L36.9144 237.538C34.4544 241.918 32.0544 243.478 29.6544 243.478ZM24.1344 225.058H34.5744C34.6944 220.498 34.3344 213.178 29.9544 213.178C26.3544 213.178 24.3744 218.038 24.1344 225.058ZM53.0132 242.578V241.858L55.7132 241.558L56.7332 240.958V220.978C56.7332 216.418 55.3532 214.078 52.5932 214.078C50.6132 214.078 48.7532 215.338 47.1332 219.118L46.7132 220.138V240.958L47.7332 241.558L50.4332 241.858V242.578H40.4132V241.858L43.1132 241.558L44.1932 240.958V214.978L40.1132 214.318V213.658L45.9932 212.818H46.5932L46.4132 217.318L46.2932 219.418H46.4132L46.6532 218.818C47.4932 216.358 49.5332 212.098 53.6132 212.098C56.8532 212.098 59.2532 214.678 59.2532 220.618V240.958L60.1532 241.558L62.5532 241.858V242.578H53.0132ZM71.0924 243.058C69.2924 243.058 67.7924 241.498 67.7924 238.798V214.318H63.2324V213.478L67.7924 213.118L69.5924 203.878H70.3724V212.998L75.1124 212.818H76.3124V214.318H70.3724V238.978C70.3724 240.418 70.9724 241.258 71.9924 241.258C73.0124 241.258 74.2124 240.538 75.8924 238.618L76.3724 238.078L77.0324 238.678L76.4924 239.338C74.3324 241.978 72.6524 243.058 71.0924 243.058ZM89.1327 243.238C85.5927 243.238 83.4927 240.058 83.4927 233.938V214.798L79.6527 214.198V213.538L85.3527 212.818H85.9527V233.878C85.9527 238.618 87.4527 241.378 90.0327 241.378C92.8527 241.378 94.4127 237.958 95.3127 234.838L95.7327 233.338V214.858L91.7127 214.198V213.538L97.5927 212.818H98.2527V240.838L99.2127 241.318L101.433 241.558L101.493 242.278L96.5127 242.698H95.7927L95.9727 239.098L96.2127 233.998H96.0327L95.7927 234.958C94.7727 238.978 93.2127 243.238 89.1327 243.238ZM105.218 242.578V241.858L107.978 241.558L108.998 240.958V214.978L104.858 214.258V213.658L110.798 212.758H111.398L111.158 217.258L110.978 221.878H111.158L112.178 219.058C113.438 215.278 114.698 212.938 118.658 212.938H119.318V215.818H117.998C115.478 215.818 114.158 216.238 112.658 219.778L111.578 222.418V240.958L113.018 241.558L116.918 241.858V242.578H105.218ZM127.588 206.518C126.088 206.518 125.008 205.378 125.008 203.878C125.008 202.318 126.088 201.238 127.588 201.238C129.088 201.238 130.168 202.318 130.168 203.878C130.168 205.378 129.088 206.518 127.588 206.518ZM122.908 214.258V213.658L128.908 212.758H129.448V240.958L130.468 241.558L133.048 241.858V242.578H123.148V241.858L125.908 241.558L126.928 240.958V214.918L122.908 214.258ZM144.264 243.478C139.344 243.478 136.164 236.578 136.164 227.818C136.164 218.398 139.944 212.098 145.044 212.098C149.784 212.098 152.004 217.498 151.644 226.318H138.684V226.798C138.684 235.498 141.084 241.618 145.104 241.618C147.024 241.618 148.824 240.238 150.804 236.998L151.524 237.538C149.064 241.918 146.664 243.478 144.264 243.478ZM138.744 225.058H149.184C149.304 220.498 148.944 213.178 144.564 213.178C140.964 213.178 138.984 218.038 138.744 225.058ZM163.057 243.418C160.537 243.418 158.317 242.158 156.697 240.418L156.157 232.438H157.237L157.597 234.358C158.497 239.278 160.537 242.518 163.597 242.518C166.297 242.518 167.437 239.938 167.437 237.178C167.437 233.458 165.217 231.358 164.077 230.218L159.757 226.378C158.557 225.238 156.457 223.078 156.457 219.178C156.457 214.678 159.157 212.158 162.817 212.158C165.217 212.158 167.257 213.358 168.697 214.918L169.177 222.178H168.217L167.857 220.378C167.017 216.718 165.397 212.998 162.337 212.998C159.997 212.998 158.617 215.278 158.617 218.158C158.617 220.678 159.577 222.538 161.317 224.098L165.637 227.938C167.377 229.558 169.657 231.778 169.657 235.978C169.657 240.298 167.197 243.418 163.057 243.418ZM191.732 243.478C186.692 243.478 183.332 237.058 183.332 227.878C183.332 218.518 186.812 212.098 191.912 212.098C197.012 212.098 200.372 218.458 200.372 227.638C200.372 236.998 196.772 243.478 191.732 243.478ZM185.912 226.798C185.912 235.618 188.552 242.398 192.152 242.398C195.572 242.398 197.792 236.698 197.792 228.658C197.792 219.838 195.152 213.178 191.552 213.178C188.072 213.178 185.912 218.938 185.912 226.798ZM203.89 242.578V241.858L206.59 241.558L207.67 240.958V214.378H203.59V213.538L207.67 213.178V208.498C207.67 202.138 211.51 198.058 218.41 198.058H218.59V200.518H218.05L212.77 200.158C210.97 201.598 210.19 203.698 210.19 206.878V212.998L213.61 212.698H216.31V214.378H210.19V240.958L211.57 241.558L215.11 241.858V242.578H203.89ZM240.692 242.578V241.858L243.152 241.558L244.112 240.958V220.978C244.112 215.938 242.372 214.078 240.032 214.078C238.112 214.078 236.132 215.398 234.632 219.178L234.272 220.078V240.958L235.292 241.558L237.992 241.858V242.578H227.972V241.858L230.672 241.558L231.752 240.958V214.978L227.672 214.318V213.658L233.552 212.818H234.152L233.972 217.318L233.852 219.418H233.972L234.152 218.938C234.992 216.478 236.972 212.098 241.052 212.098C243.812 212.098 245.972 214.018 246.512 218.338C247.412 215.878 249.452 212.098 253.292 212.098C256.532 212.098 258.932 214.678 258.932 220.618V240.958L259.832 241.558L262.232 241.858V242.578H252.692V241.858L255.392 241.558L256.412 240.958V220.978C256.412 216.418 255.032 214.078 252.272 214.078C250.292 214.078 248.432 215.338 246.812 219.118L246.632 219.598V220.618V240.958L247.532 241.558L249.992 241.858V242.578H240.692ZM263.288 254.578V252.178H264.008L269.168 252.418C270.368 251.218 271.088 249.598 271.628 247.378L272.948 242.398L264.908 214.378L262.808 213.658V212.998H272.348V213.658L268.028 214.318V215.458L274.148 238.318H274.448L280.628 215.458V214.318L277.028 213.658V212.998H284.228V213.658L282.248 214.378L273.188 246.778C271.448 252.718 268.868 254.578 264.188 254.578H263.288ZM294.19 243.418C291.67 243.418 289.45 242.158 287.83 240.418L287.29 232.438H288.37L288.73 234.358C289.63 239.278 291.67 242.518 294.73 242.518C297.43 242.518 298.57 239.938 298.57 237.178C298.57 233.458 296.35 231.358 295.21 230.218L290.89 226.378C289.69 225.238 287.59 223.078 287.59 219.178C287.59 214.678 290.29 212.158 293.95 212.158C296.35 212.158 298.39 213.358 299.83 214.918L300.31 222.178H299.35L298.99 220.378C298.15 216.718 296.53 212.998 293.47 212.998C291.13 212.998 289.75 215.278 289.75 218.158C289.75 220.678 290.71 222.538 292.45 224.098L296.77 227.938C298.51 229.558 300.79 231.778 300.79 235.978C300.79 240.298 298.33 243.418 294.19 243.418ZM311.913 243.058C310.113 243.058 308.613 241.498 308.613 238.798V214.318H304.053V213.478L308.613 213.118L310.413 203.878H311.193V212.998L315.933 212.818H317.133V214.318H311.193V238.978C311.193 240.418 311.793 241.258 312.813 241.258C313.833 241.258 315.033 240.538 316.713 238.618L317.193 238.078L317.853 238.678L317.313 239.338C315.153 241.978 313.473 243.058 311.913 243.058ZM328.893 243.478C323.973 243.478 320.793 236.578 320.793 227.818C320.793 218.398 324.573 212.098 329.673 212.098C334.413 212.098 336.633 217.498 336.273 226.318H323.313V226.798C323.313 235.498 325.713 241.618 329.733 241.618C331.653 241.618 333.453 240.238 335.433 236.998L336.153 237.538C333.693 241.918 331.293 243.478 328.893 243.478ZM323.373 225.058H333.813C333.933 220.498 333.573 213.178 329.193 213.178C325.593 213.178 323.613 218.038 323.373 225.058ZM339.651 242.578V241.858L342.411 241.558L343.431 240.958V214.978L339.291 214.258V213.658L345.231 212.758H345.831L345.591 217.258L345.411 221.878H345.591L346.611 219.058C347.871 215.278 349.131 212.938 353.091 212.938H353.751V215.818H352.431C349.911 215.818 348.591 216.238 347.091 219.778L346.011 222.418V240.958L347.451 241.558L351.351 241.858V242.578H339.651ZM357.8 254.578V252.178H358.52L363.68 252.418C364.88 251.218 365.6 249.598 366.14 247.378L367.46 242.398L359.42 214.378L357.32 213.658V212.998H366.86V213.658L362.54 214.318V215.458L368.66 238.318H368.96L375.14 215.458V214.318L371.54 213.658V212.998H378.74V213.658L376.76 214.378L367.7 246.778C365.96 252.718 363.38 254.578 358.7 254.578H357.8ZM4.13988 266.098L-0.000117182 265.498V264.838L6.05988 263.998H6.65988V284.338H6.77988L6.95988 283.978C8.09988 280.738 9.89988 278.158 12.7799 278.158C17.2799 278.158 20.2799 284.398 20.2799 293.158C20.2799 302.638 16.7999 309.478 10.9199 309.478C8.69988 309.478 6.65988 308.458 4.97988 306.478L4.13988 305.518V266.098ZM6.65988 304.798L6.89988 305.218C7.91988 307.198 9.59988 308.518 11.4599 308.518C15.2999 308.518 17.7599 302.518 17.7599 294.358C17.7599 285.838 15.2999 280.138 11.6399 280.138C9.47988 280.138 8.15988 282.178 7.07988 284.938L6.65988 285.958V304.798ZM32.9357 309.478C28.0157 309.478 24.8357 302.578 24.8357 293.818C24.8357 284.398 28.6157 278.098 33.7157 278.098C38.4557 278.098 40.6757 283.498 40.3157 292.318H27.3557V292.798C27.3557 301.498 29.7557 307.618 33.7757 307.618C35.6957 307.618 37.4957 306.238 39.4757 302.998L40.1957 303.538C37.7357 307.918 35.3357 309.478 32.9357 309.478ZM27.4157 291.058H37.8557C37.9757 286.498 37.6157 279.178 33.2357 279.178C29.6357 279.178 27.6557 284.038 27.4157 291.058ZM49.4404 309.118C46.7404 309.118 44.6404 306.658 44.6404 302.638C44.6404 298.018 47.4004 293.818 53.6404 291.298L56.7604 289.978V287.458C56.7604 281.938 55.1404 279.298 52.3204 279.298C49.2604 279.298 47.1604 282.538 48.1204 288.478H45.4204C45.1804 282.358 48.4204 278.098 52.9204 278.098C57.3604 278.098 59.2804 281.998 59.2804 288.238V306.898L60.2404 307.318L62.4604 307.618L62.5204 308.278L57.5404 308.698H56.8204L56.9404 305.158L57.1204 300.778H56.9404C55.4404 305.698 52.6804 309.118 49.4404 309.118ZM46.9804 302.038C46.9804 305.398 48.6004 307.078 50.5204 307.078C53.1004 307.078 55.5004 304.078 56.7604 299.578V291.058L54.5404 292.018C51.5404 293.278 46.9804 296.398 46.9804 302.038ZM72.9022 309.238C69.3622 309.238 67.2622 306.058 67.2622 299.938V280.798L63.4222 280.198V279.538L69.1222 278.818H69.7222V299.878C69.7222 304.618 71.2222 307.378 73.8022 307.378C76.6222 307.378 78.1822 303.958 79.0822 300.838L79.5022 299.338V280.858L75.4822 280.198V279.538L81.3622 278.818H82.0222V306.838L82.9822 307.318L85.2022 307.558L85.2622 308.278L80.2822 308.698H79.5622L79.7422 305.098L79.9822 299.998H79.8022L79.5622 300.958C78.5422 304.978 76.9822 309.238 72.9022 309.238ZM94.5299 309.058C92.7299 309.058 91.2299 307.498 91.2299 304.798V280.318H86.6699V279.478L91.2299 279.118L93.0299 269.878H93.8099V278.998L98.5499 278.818H99.7499V280.318H93.8099V304.978C93.8099 306.418 94.4099 307.258 95.4299 307.258C96.4499 307.258 97.6499 306.538 99.3299 304.618L99.8099 304.078L100.47 304.678L99.9299 305.338C97.7699 307.978 96.0899 309.058 94.5299 309.058ZM103.62 320.578V318.178H104.34L109.5 318.418C110.7 317.218 111.42 315.598 111.96 313.378L113.28 308.398L105.24 280.378L103.14 279.658V278.998H112.68V279.658L108.36 280.318V281.458L114.48 304.318H114.78L120.96 281.458V280.318L117.36 279.658V278.998H124.56V279.658L122.58 280.378L113.52 312.778C111.78 318.718 109.2 320.578 104.52 320.578H103.62ZM156.375 308.938L151.275 290.458L146.355 308.938H145.155L137.175 280.378L135.195 279.658V278.998H155.235V279.658L151.395 280.318V281.458L157.455 304.498H157.695L163.455 281.458V280.318L159.975 279.658V278.998H167.235V279.658L165.135 280.378L157.575 308.938H156.375ZM140.115 281.638L146.235 304.498H146.475L150.735 288.358L148.455 280.078H140.115V281.638ZM174.99 272.518C173.49 272.518 172.41 271.378 172.41 269.878C172.41 268.318 173.49 267.238 174.99 267.238C176.49 267.238 177.57 268.318 177.57 269.878C177.57 271.378 176.49 272.518 174.99 272.518ZM170.31 280.258V279.658L176.31 278.758H176.85V306.958L177.87 307.558L180.45 307.858V308.578H170.55V307.858L173.31 307.558L174.33 306.958V280.918L170.31 280.258ZM189.51 309.058C187.71 309.058 186.21 307.498 186.21 304.798V280.318H181.65V279.478L186.21 279.118L188.01 269.878H188.79V278.998L193.53 278.818H194.73V280.318H188.79V304.978C188.79 306.418 189.39 307.258 190.41 307.258C191.43 307.258 192.63 306.538 194.31 304.618L194.79 304.078L195.45 304.678L194.91 305.338C192.75 307.978 191.07 309.058 189.51 309.058ZM198.141 308.578V307.858L200.841 307.558L201.921 306.958V266.098L197.841 265.498V264.838L203.841 263.998H204.441V284.638C205.341 282.178 207.381 278.098 211.341 278.098C214.581 278.098 216.981 280.678 216.981 286.618V306.958L217.881 307.558L220.281 307.858V308.578H210.741V307.858L213.441 307.558L214.461 306.958V286.978C214.461 282.418 213.081 280.078 210.321 280.078C208.341 280.078 206.481 281.338 204.861 285.118L204.441 286.138V306.958L205.461 307.558L208.161 307.858V308.578H198.141ZM228.31 272.518C226.81 272.518 225.73 271.378 225.73 269.878C225.73 268.318 226.81 267.238 228.31 267.238C229.81 267.238 230.89 268.318 230.89 269.878C230.89 271.378 229.81 272.518 228.31 272.518ZM223.63 280.258V279.658L229.63 278.758H230.17V306.958L231.19 307.558L233.77 307.858V308.578H223.87V307.858L226.63 307.558L227.65 306.958V280.918L223.63 280.258ZM250.064 308.578V307.858L252.764 307.558L253.784 306.958V286.978C253.784 282.418 252.404 280.078 249.644 280.078C247.664 280.078 245.804 281.338 244.184 285.118L243.764 286.138V306.958L244.784 307.558L247.484 307.858V308.578H237.464V307.858L240.164 307.558L241.244 306.958V280.978L237.164 280.318V279.658L243.044 278.818H243.644L243.464 283.318L243.344 285.418H243.464L243.704 284.818C244.544 282.358 246.584 278.098 250.664 278.098C253.904 278.098 256.304 280.678 256.304 286.618V306.958L257.204 307.558L259.604 307.858V308.578H250.064ZM280.318 309.478C275.398 309.478 272.218 302.578 272.218 293.818C272.218 284.398 275.998 278.098 281.098 278.098C285.838 278.098 288.058 283.498 287.698 292.318H274.738V292.798C274.738 301.498 277.138 307.618 281.158 307.618C283.078 307.618 284.878 306.238 286.858 302.998L287.578 303.538C285.118 307.918 282.718 309.478 280.318 309.478ZM274.798 291.058H285.238C285.358 286.498 284.998 279.178 280.618 279.178C277.018 279.178 275.038 284.038 274.798 291.058ZM296.823 309.118C294.123 309.118 292.023 306.658 292.023 302.638C292.023 298.018 294.783 293.818 301.023 291.298L304.143 289.978V287.458C304.143 281.938 302.523 279.298 299.703 279.298C296.643 279.298 294.543 282.538 295.503 288.478H292.803C292.563 282.358 295.803 278.098 300.303 278.098C304.743 278.098 306.663 281.998 306.663 288.238V306.898L307.623 307.318L309.843 307.618L309.903 308.278L304.923 308.698H304.203L304.323 305.158L304.503 300.778H304.323C302.823 305.698 300.063 309.118 296.823 309.118ZM294.363 302.038C294.363 305.398 295.983 307.078 297.903 307.078C300.483 307.078 302.883 304.078 304.143 299.578V291.058L301.923 292.018C298.923 293.278 294.363 296.398 294.363 302.038ZM321.276 309.478C316.776 309.478 313.176 303.598 313.176 293.938C313.176 284.518 316.836 278.098 321.936 278.098C326.196 278.098 328.536 282.658 328.236 289.438H325.476C326.436 283.138 324.756 279.178 321.576 279.178C317.616 279.178 315.696 285.178 315.696 292.978C315.696 302.518 318.516 307.618 322.116 307.618C324.096 307.618 325.896 305.998 327.696 303.058L328.416 303.598C326.316 307.438 323.916 309.478 321.276 309.478ZM331.207 308.578V307.858L333.907 307.558L334.987 306.958V266.098L330.907 265.498V264.838L336.907 263.998H337.507V284.638C338.407 282.178 340.447 278.098 344.407 278.098C347.647 278.098 350.047 280.678 350.047 286.618V306.958L350.947 307.558L353.347 307.858V308.578H343.807V307.858L346.507 307.558L347.527 306.958V286.978C347.527 282.418 346.147 280.078 343.387 280.078C341.407 280.078 339.547 281.338 337.927 285.118L337.507 286.138V306.958L338.527 307.558L341.227 307.858V308.578H331.207ZM9.65988 375.418C5.15988 375.418 2.15988 369.178 2.15988 360.418C2.15988 350.938 5.63988 344.098 11.5199 344.098C13.0199 344.098 14.4599 344.578 15.7799 345.538V332.158L10.4399 331.498V330.838L17.6399 329.998H18.3599V372.898L19.2599 373.318L21.5399 373.558V374.278L16.4999 374.698H15.7799L15.8399 371.098L15.8999 369.238H15.6599L15.4799 369.598C14.3399 372.838 12.5399 375.418 9.65988 375.418ZM4.67988 359.218C4.67988 367.738 7.13988 373.438 10.7999 373.438C12.9599 373.438 14.2799 371.398 15.3599 368.638L15.7799 367.558V348.778L15.5399 348.358C14.5199 346.378 12.8399 345.058 10.9799 345.058C7.13988 345.058 4.67988 351.058 4.67988 359.218ZM30.0458 375.118C27.3458 375.118 25.2458 372.658 25.2458 368.638C25.2458 364.018 28.0058 359.818 34.2458 357.298L37.3658 355.978V353.458C37.3658 347.938 35.7458 345.298 32.9258 345.298C29.8658 345.298 27.7658 348.538 28.7258 354.478H26.0258C25.7858 348.358 29.0258 344.098 33.5258 344.098C37.9658 344.098 39.8858 347.998 39.8858 354.238V372.898L40.8458 373.318L43.0658 373.618L43.1258 374.278L38.1458 374.698H37.4258L37.5458 371.158L37.7258 366.778H37.5458C36.0458 371.698 33.2858 375.118 30.0458 375.118ZM27.5858 368.038C27.5858 371.398 29.2058 373.078 31.1258 373.078C33.7058 373.078 36.1058 370.078 37.3658 365.578V357.058L35.1458 358.018C32.1458 359.278 27.5858 362.398 27.5858 368.038ZM47.2185 374.578V373.858L59.2185 346.018H50.2185L47.6985 352.078H47.1585L48.3585 345.058V344.998H62.1585V345.658L50.0985 373.558H59.1585L62.0385 366.958H62.6385L61.3185 374.578H47.2185ZM66.7302 374.578V373.858L78.7302 346.018H69.7302L67.2102 352.078H66.6702L67.8702 345.058V344.998H81.6702V345.658L69.6102 373.558H78.6702L81.5502 366.958H82.1502L80.8302 374.578H66.7302ZM85.4661 374.578V373.858L88.2261 373.558L89.2461 372.958V332.158L85.1061 331.498V330.838L91.1661 329.998H91.7661V372.958L92.6661 373.558L95.1261 373.858V374.578H85.4661ZM103.271 338.518C101.771 338.518 100.691 337.378 100.691 335.878C100.691 334.318 101.771 333.238 103.271 333.238C104.771 333.238 105.851 334.318 105.851 335.878C105.851 337.378 104.771 338.518 103.271 338.518ZM98.5911 346.258V345.658L104.591 344.758H105.131V372.958L106.151 373.558L108.731 373.858V374.578H98.8311V373.858L101.591 373.558L102.611 372.958V346.918L98.5911 346.258ZM125.025 374.578V373.858L127.725 373.558L128.745 372.958V352.978C128.745 348.418 127.365 346.078 124.605 346.078C122.625 346.078 120.765 347.338 119.145 351.118L118.725 352.138V372.958L119.745 373.558L122.445 373.858V374.578H112.425V373.858L115.125 373.558L116.205 372.958V346.978L112.125 346.318V345.658L118.005 344.818H118.605L118.425 349.318L118.305 351.418H118.425L118.665 350.818C119.505 348.358 121.545 344.098 125.625 344.098C128.865 344.098 131.265 346.678 131.265 352.618V372.958L132.165 373.558L134.565 373.858V374.578H125.025ZM145.41 387.418C140.73 387.418 137.73 384.538 137.73 380.158C137.73 376.978 139.29 374.398 141.33 372.538L142.17 371.698C140.49 370.798 140.37 368.578 141.63 365.518L142.53 363.058C140.49 361.318 139.29 358.318 139.29 354.598C139.29 348.538 142.41 344.098 147.09 344.098C148.59 344.098 149.91 344.578 151.05 345.418C152.49 344.458 154.17 343.738 156.15 343.378H156.69V345.778H151.53C153.45 347.518 154.59 350.458 154.59 354.118C154.59 360.178 151.47 364.618 146.79 364.618C145.53 364.618 144.33 364.258 143.37 363.658L142.89 365.458C142.29 367.798 142.23 368.818 142.53 370.078H149.85C154.05 370.078 156.33 372.718 156.33 376.738C156.33 382.498 151.65 387.418 145.41 387.418ZM140.01 379.678C140.01 383.758 142.77 386.278 146.31 386.278C150.69 386.278 153.99 382.378 153.99 377.698C153.99 374.578 152.49 372.238 148.83 372.238H144.63C143.97 372.238 143.37 372.178 142.89 371.998L142.41 372.718C141.21 374.458 140.01 377.038 140.01 379.678ZM141.81 353.998C141.81 359.758 144.15 363.538 147.21 363.538C150.15 363.538 152.13 360.058 152.13 354.658C152.13 349.018 149.85 345.118 146.73 345.118C143.67 345.118 141.81 348.778 141.81 353.998ZM169.319 374.578V373.858L172.019 373.558L173.099 372.958V346.378H169.019V345.538L173.099 345.178V340.498C173.099 334.138 176.939 330.058 183.839 330.058H184.019V332.518H183.479L178.199 332.158C176.399 333.598 175.619 335.698 175.619 338.878V344.998L179.039 344.698H181.739V346.378H175.619V372.958L176.999 373.558L180.539 373.858V374.578H169.319ZM189.128 375.118C186.428 375.118 184.328 372.658 184.328 368.638C184.328 364.018 187.088 359.818 193.328 357.298L196.448 355.978V353.458C196.448 347.938 194.828 345.298 192.008 345.298C188.948 345.298 186.848 348.538 187.808 354.478H185.108C184.868 348.358 188.108 344.098 192.608 344.098C197.048 344.098 198.968 347.998 198.968 354.238V372.898L199.928 373.318L202.148 373.618L202.208 374.278L197.228 374.698H196.508L196.628 371.158L196.808 366.778H196.628C195.128 371.698 192.368 375.118 189.128 375.118ZM186.668 368.038C186.668 371.398 188.288 373.078 190.208 373.078C192.788 373.078 195.188 370.078 196.448 365.578V357.058L194.228 358.018C191.228 359.278 186.668 362.398 186.668 368.038ZM213.58 375.478C209.08 375.478 205.48 369.598 205.48 359.938C205.48 350.518 209.14 344.098 214.24 344.098C218.5 344.098 220.84 348.658 220.54 355.438H217.78C218.74 349.138 217.06 345.178 213.88 345.178C209.92 345.178 208 351.178 208 358.978C208 368.518 210.82 373.618 214.42 373.618C216.4 373.618 218.2 371.998 220 369.058L220.72 369.598C218.62 373.438 216.22 375.478 213.58 375.478ZM232.975 375.478C228.055 375.478 224.875 368.578 224.875 359.818C224.875 350.398 228.655 344.098 233.755 344.098C238.495 344.098 240.715 349.498 240.355 358.318H227.395V358.798C227.395 367.498 229.795 373.618 233.815 373.618C235.735 373.618 237.535 372.238 239.515 368.998L240.235 369.538C237.775 373.918 235.375 375.478 232.975 375.478ZM227.455 357.058H237.895C238.015 352.498 237.655 345.178 233.275 345.178C229.675 345.178 227.695 350.038 227.455 357.058ZM250.917 375.058C249.117 375.058 247.617 373.498 247.617 370.798V346.318H243.057V345.478L247.617 345.118L249.417 335.878H250.197V344.998L254.937 344.818H256.137V346.318H250.197V370.978C250.197 372.418 250.797 373.258 251.817 373.258C252.837 373.258 254.037 372.538 255.717 370.618L256.197 370.078L256.857 370.678L256.317 371.338C254.157 373.978 252.477 375.058 250.917 375.058Z" fill="black"/>
</svg>
