<svg width="1252" height="280" viewBox="0 0 1252 280" fill="none" xmlns="http://www.w3.org/2000/svg">
<path d="M36.48 60.0014L28.16 26.4814L19.6 60.0014H17.68L3.19996 3.6814L-3.9041e-05 2.7214V1.8414H33.44V2.80141L26.64 3.60141V5.2014L38.24 53.2014H38.56L49.36 5.2014V3.60141L42.48 2.80141V1.8414H54.72V2.7214L51.68 3.6814L38.4 60.0014H36.48ZM7.67996 5.2814L19.6 53.2014H19.92L27.28 22.9614L22.32 3.1214H7.67996V5.2814ZM62.1275 11.3614C60.1275 11.3614 58.6875 9.84141 58.6875 7.8414C58.6875 5.76141 60.1275 4.32141 62.1275 4.32141C64.1275 4.32141 65.5675 5.76141 65.5675 7.8414C65.5675 9.84141 64.1275 11.3614 62.1275 11.3614ZM55.8875 21.6814V20.8814L63.8875 19.6814H64.6075V57.2814L65.9675 58.0814L69.4075 58.4814V59.4414H56.2075V58.4814L59.8875 58.0814L61.2475 57.2814V22.5614L55.8875 21.6814ZM81.4881 60.0814C79.0881 60.0814 77.0881 58.0014 77.0881 54.4014V21.7614H71.0081V20.6414L77.0881 20.1614L79.4881 7.8414H80.5281V20.0014L86.8481 19.7614H88.4481V21.7614H80.5281V54.6414C80.5281 56.5614 81.3281 57.6814 82.6881 57.6814C84.0481 57.6814 85.6481 56.7214 87.8881 54.1614L88.5281 53.4414L89.4081 54.2414L88.6881 55.1214C85.8081 58.6414 83.5681 60.0814 81.4881 60.0814ZM92.995 59.4414V58.4814L96.595 58.0814L98.035 57.2814V2.80141L92.595 2.0014V1.1214L100.595 0.00140381H101.395V27.5214C102.595 24.2414 105.315 18.8014 110.595 18.8014C114.915 18.8014 118.115 22.2414 118.115 30.1614V57.2814L119.315 58.0814L122.515 58.4814V59.4414H109.795V58.4814L113.395 58.0814L114.755 57.2814V30.6414C114.755 24.5614 112.915 21.4414 109.235 21.4414C106.595 21.4414 104.115 23.1214 101.955 28.1614L101.395 29.5214V57.2814L102.755 58.0814L106.355 58.4814V59.4414H92.995ZM133.221 11.3614C131.221 11.3614 129.781 9.84141 129.781 7.8414C129.781 5.76141 131.221 4.32141 133.221 4.32141C135.221 4.32141 136.661 5.76141 136.661 7.8414C136.661 9.84141 135.221 11.3614 133.221 11.3614ZM126.981 21.6814V20.8814L134.981 19.6814H135.701V57.2814L137.061 58.0814L140.501 58.4814V59.4414H127.301V58.4814L130.981 58.0814L132.341 57.2814V22.5614L126.981 21.6814ZM162.226 59.4414V58.4814L165.826 58.0814L167.186 57.2814V30.6414C167.186 24.5614 165.346 21.4414 161.666 21.4414C159.026 21.4414 156.546 23.1214 154.386 28.1614L153.826 29.5214V57.2814L155.186 58.0814L158.786 58.4814V59.4414H145.426V58.4814L149.026 58.0814L150.466 57.2814V22.6414L145.026 21.7614V20.8814L152.866 19.7614H153.666L153.426 25.7614L153.266 28.5614H153.426L153.746 27.7614C154.866 24.4814 157.586 18.8014 163.026 18.8014C167.346 18.8014 170.546 22.2414 170.546 30.1614V57.2814L171.746 58.0814L174.946 58.4814V59.4414H162.226ZM202.566 60.6414C196.006 60.6414 191.766 51.4414 191.766 39.7614C191.766 27.2014 196.806 18.8014 203.606 18.8014C209.926 18.8014 212.886 26.0014 212.406 37.7614H195.126V38.4014C195.126 50.0014 198.326 58.1614 203.686 58.1614C206.246 58.1614 208.646 56.3214 211.286 52.0014L212.246 52.7214C208.966 58.5614 205.766 60.6414 202.566 60.6414ZM195.206 36.0814H209.126C209.286 30.0014 208.806 20.2414 202.966 20.2414C198.166 20.2414 195.526 26.7214 195.206 36.0814ZM224.572 60.1614C220.972 60.1614 218.172 56.8814 218.172 51.5214C218.172 45.3614 221.852 39.7614 230.172 36.4014L234.332 34.6414V31.2814C234.332 23.9214 232.172 20.4014 228.412 20.4014C224.332 20.4014 221.532 24.7214 222.812 32.6414H219.212C218.892 24.4814 223.212 18.8014 229.212 18.8014C235.132 18.8014 237.692 24.0014 237.692 32.3214V57.2014L238.972 57.7614L241.932 58.1614L242.012 59.0414L235.372 59.6014H234.412L234.572 54.8814L234.812 49.0414H234.572C232.572 55.6014 228.892 60.1614 224.572 60.1614ZM221.292 50.7214C221.292 55.2014 223.452 57.4414 226.012 57.4414C229.452 57.4414 232.652 53.4414 234.332 47.4414V36.0814L231.372 37.3614C227.372 39.0414 221.292 43.2014 221.292 50.7214ZM257.175 60.6414C251.175 60.6414 246.375 52.8014 246.375 39.9214C246.375 27.3614 251.255 18.8014 258.055 18.8014C263.735 18.8014 266.855 24.8814 266.455 33.9214H262.775C264.055 25.5214 261.815 20.2414 257.575 20.2414C252.295 20.2414 249.735 28.2414 249.735 38.6414C249.735 51.3614 253.495 58.1614 258.295 58.1614C260.935 58.1614 263.335 56.0014 265.735 52.0814L266.695 52.8014C263.895 57.9214 260.695 60.6414 257.175 60.6414ZM270.417 59.4414V58.4814L274.017 58.0814L275.457 57.2814V2.80141L270.017 2.0014V1.1214L278.017 0.00140381H278.817V27.5214C280.017 24.2414 282.737 18.8014 288.017 18.8014C292.337 18.8014 295.537 22.2414 295.537 30.1614V57.2814L296.737 58.0814L299.937 58.4814V59.4414H287.217V58.4814L290.817 58.0814L292.177 57.2814V30.6414C292.177 24.5614 290.337 21.4414 286.657 21.4414C284.017 21.4414 281.537 23.1214 279.377 28.1614L278.817 29.5214V57.2814L280.177 58.0814L283.777 58.4814V59.4414H270.417ZM326.126 76.5614C319.886 76.5614 315.886 72.7214 315.886 66.8814C315.886 62.6414 317.966 59.2014 320.686 56.7214L321.806 55.6014C319.566 54.4014 319.406 51.4414 321.086 47.3614L322.286 44.0814C319.566 41.7614 317.966 37.7614 317.966 32.8014C317.966 24.7214 322.126 18.8014 328.366 18.8014C330.366 18.8014 332.126 19.4414 333.646 20.5614C335.566 19.2814 337.806 18.3214 340.446 17.8414H341.166V21.0414H334.286C336.846 23.3614 338.366 27.2814 338.366 32.1614C338.366 40.2414 334.206 46.1614 327.966 46.1614C326.286 46.1614 324.686 45.6814 323.406 44.8814L322.766 47.2814C321.966 50.4014 321.886 51.7614 322.286 53.4414H332.046C337.646 53.4414 340.686 56.9614 340.686 62.3214C340.686 70.0014 334.446 76.5614 326.126 76.5614ZM318.926 66.2414C318.926 71.6814 322.606 75.0414 327.326 75.0414C333.166 75.0414 337.566 69.8414 337.566 63.6014C337.566 59.4414 335.566 56.3214 330.686 56.3214H325.086C324.206 56.3214 323.406 56.2414 322.766 56.0014L322.126 56.9614C320.526 59.2814 318.926 62.7214 318.926 66.2414ZM321.326 32.0014C321.326 39.6814 324.446 44.7214 328.526 44.7214C332.446 44.7214 335.086 40.0814 335.086 32.8814C335.086 25.3614 332.046 20.1614 327.886 20.1614C323.806 20.1614 321.326 25.0414 321.326 32.0014ZM356.706 60.6414C350.146 60.6414 345.906 51.4414 345.906 39.7614C345.906 27.2014 350.946 18.8014 357.746 18.8014C364.066 18.8014 367.026 26.0014 366.546 37.7614H349.266V38.4014C349.266 50.0014 352.466 58.1614 357.826 58.1614C360.386 58.1614 362.786 56.3214 365.426 52.0014L366.386 52.7214C363.106 58.5614 359.906 60.6414 356.706 60.6414ZM349.346 36.0814H363.266C363.426 30.0014 362.946 20.2414 357.106 20.2414C352.306 20.2414 349.666 26.7214 349.346 36.0814ZM388.011 59.4414V58.4814L391.291 58.0814L392.571 57.2814V30.6414C392.571 23.9214 390.251 21.4414 387.131 21.4414C384.571 21.4414 381.931 23.2014 379.931 28.2414L379.451 29.4414V57.2814L380.811 58.0814L384.411 58.4814V59.4414H371.051V58.4814L374.651 58.0814L376.091 57.2814V22.6414L370.651 21.7614V20.8814L378.491 19.7614H379.291L379.051 25.7614L378.891 28.5614H379.051L379.291 27.9214C380.411 24.6414 383.051 18.8014 388.491 18.8014C392.171 18.8014 395.051 21.3614 395.771 27.1214C396.971 23.8414 399.691 18.8014 404.811 18.8014C409.131 18.8014 412.331 22.2414 412.331 30.1614V57.2814L413.531 58.0814L416.731 58.4814V59.4414H404.011V58.4814L407.611 58.0814L408.971 57.2814V30.6414C408.971 24.5614 407.131 21.4414 403.451 21.4414C400.811 21.4414 398.331 23.1214 396.171 28.1614L395.931 28.8014V30.1614V57.2814L397.131 58.0814L400.411 58.4814V59.4414H388.011ZM430.904 60.5614C427.544 60.5614 424.584 58.8814 422.424 56.5614L421.704 45.9214H423.144L423.624 48.4814C424.824 55.0414 427.544 59.3614 431.624 59.3614C435.224 59.3614 436.744 55.9214 436.744 52.2414C436.744 47.2814 433.784 44.4814 432.264 42.9614L426.504 37.8414C424.904 36.3214 422.104 33.4414 422.104 28.2414C422.104 22.2414 425.704 18.8814 430.584 18.8814C433.784 18.8814 436.504 20.4814 438.424 22.5614L439.064 32.2414H437.784L437.304 29.8414C436.184 24.9614 434.024 20.0014 429.944 20.0014C426.824 20.0014 424.984 23.0414 424.984 26.8814C424.984 30.2414 426.264 32.7214 428.584 34.8014L434.344 39.9214C436.664 42.0814 439.704 45.0414 439.704 50.6414C439.704 56.4014 436.424 60.5614 430.904 60.5614ZM454.535 60.0814C452.135 60.0814 450.135 58.0014 450.135 54.4014V21.7614H444.055V20.6414L450.135 20.1614L452.535 7.8414H453.575V20.0014L459.895 19.7614H461.495V21.7614H453.575V54.6414C453.575 56.5614 454.375 57.6814 455.735 57.6814C457.095 57.6814 458.695 56.7214 460.935 54.1614L461.575 53.4414L462.455 54.2414L461.735 55.1214C458.855 58.6414 456.615 60.0814 454.535 60.0814ZM477.575 60.6414C470.855 60.6414 466.375 52.0814 466.375 39.8414C466.375 27.3614 471.015 18.8014 477.815 18.8014C484.615 18.8014 489.095 27.2814 489.095 39.5214C489.095 52.0014 484.295 60.6414 477.575 60.6414ZM469.815 38.4014C469.815 50.1614 473.335 59.2014 478.135 59.2014C482.695 59.2014 485.655 51.6014 485.655 40.8814C485.655 29.1214 482.135 20.2414 477.335 20.2414C472.695 20.2414 469.815 27.9214 469.815 38.4014ZM510.586 59.4414V58.4814L514.186 58.0814L515.546 57.2814V30.6414C515.546 24.5614 513.706 21.4414 510.026 21.4414C507.386 21.4414 504.906 23.1214 502.746 28.1614L502.186 29.5214V57.2814L503.546 58.0814L507.146 58.4814V59.4414H493.786V58.4814L497.386 58.0814L498.826 57.2814V22.6414L493.386 21.7614V20.8814L501.226 19.7614H502.026L501.786 25.7614L501.626 28.5614H501.786L502.106 27.7614C503.226 24.4814 505.946 18.8014 511.386 18.8014C515.706 18.8014 518.906 22.2414 518.906 30.1614V57.2814L520.106 58.0814L523.306 58.4814V59.4414H510.586ZM538.347 60.6414C531.787 60.6414 527.547 51.4414 527.547 39.7614C527.547 27.2014 532.587 18.8014 539.387 18.8014C545.707 18.8014 548.667 26.0014 548.187 37.7614H530.907V38.4014C530.907 50.0014 534.107 58.1614 539.467 58.1614C542.027 58.1614 544.427 56.3214 547.067 52.0014L548.027 52.7214C544.747 58.5614 541.547 60.6414 538.347 60.6414ZM530.987 36.0814H544.907C545.067 30.0014 544.587 20.2414 538.747 20.2414C533.947 20.2414 531.307 26.7214 530.987 36.0814ZM564.95 59.4414V58.4814L568.63 58.0814L569.99 57.2814V2.8814L564.47 2.0014V1.1214L572.55 0.00140381H573.35V57.2814L574.55 58.0814L577.83 58.4814V59.4414H564.95ZM588.69 11.3614C586.69 11.3614 585.25 9.84141 585.25 7.8414C585.25 5.76141 586.69 4.32141 588.69 4.32141C590.69 4.32141 592.13 5.76141 592.13 7.8414C592.13 9.84141 590.69 11.3614 588.69 11.3614ZM582.45 21.6814V20.8814L590.45 19.6814H591.17V57.2814L592.53 58.0814L595.97 58.4814V59.4414H582.77V58.4814L586.45 58.0814L587.81 57.2814V22.5614L582.45 21.6814ZM610.925 60.6414C604.365 60.6414 600.125 51.4414 600.125 39.7614C600.125 27.2014 605.165 18.8014 611.965 18.8014C618.285 18.8014 621.245 26.0014 620.765 37.7614H603.485V38.4014C603.485 50.0014 606.685 58.1614 612.045 58.1614C614.605 58.1614 617.005 56.3214 619.645 52.0014L620.605 52.7214C617.325 58.5614 614.125 60.6414 610.925 60.6414ZM603.565 36.0814H617.485C617.645 30.0014 617.165 20.2414 611.325 20.2414C606.525 20.2414 603.885 26.7214 603.565 36.0814ZM635.982 60.5614C632.622 60.5614 629.662 58.8814 627.502 56.5614L626.782 45.9214H628.222L628.702 48.4814C629.902 55.0414 632.622 59.3614 636.702 59.3614C640.302 59.3614 641.822 55.9214 641.822 52.2414C641.822 47.2814 638.862 44.4814 637.342 42.9614L631.582 37.8414C629.982 36.3214 627.182 33.4414 627.182 28.2414C627.182 22.2414 630.782 18.8814 635.662 18.8814C638.862 18.8814 641.582 20.4814 643.502 22.5614L644.142 32.2414H642.862L642.382 29.8414C641.262 24.9614 639.102 20.0014 635.022 20.0014C631.902 20.0014 630.062 23.0414 630.062 26.8814C630.062 30.2414 631.342 32.7214 633.662 34.8014L639.422 39.9214C641.742 42.0814 644.782 45.0414 644.782 50.6414C644.782 56.4014 641.502 60.5614 635.982 60.5614ZM671.176 60.0814C668.776 60.0814 666.776 58.0014 666.776 54.4014V21.7614H660.696V20.6414L666.776 20.1614L669.176 7.8414H670.216V20.0014L676.536 19.7614H678.136V21.7614H670.216V54.6414C670.216 56.5614 671.016 57.6814 672.376 57.6814C673.736 57.6814 675.336 56.7214 677.576 54.1614L678.216 53.4414L679.096 54.2414L678.376 55.1214C675.496 58.6414 673.256 60.0814 671.176 60.0814ZM682.682 59.4414V58.4814L686.282 58.0814L687.722 57.2814V2.80141L682.282 2.0014V1.1214L690.282 0.00140381H691.082V27.5214C692.282 24.2414 695.002 18.8014 700.282 18.8014C704.602 18.8014 707.802 22.2414 707.802 30.1614V57.2814L709.002 58.0814L712.202 58.4814V59.4414H699.482V58.4814L703.082 58.0814L704.442 57.2814V30.6414C704.442 24.5614 702.602 21.4414 698.922 21.4414C696.282 21.4414 693.802 23.1214 691.642 28.1614L691.082 29.5214V57.2814L692.442 58.0814L696.042 58.4814V59.4414H682.682ZM727.253 60.6414C720.693 60.6414 716.453 51.4414 716.453 39.7614C716.453 27.2014 721.493 18.8014 728.293 18.8014C734.613 18.8014 737.573 26.0014 737.093 37.7614H719.813V38.4014C719.813 50.0014 723.013 58.1614 728.373 58.1614C730.933 58.1614 733.333 56.3214 735.973 52.0014L736.933 52.7214C733.653 58.5614 730.453 60.6414 727.253 60.6414ZM719.893 36.0814H733.813C733.973 30.0014 733.493 20.2414 727.653 20.2414C722.853 20.2414 720.213 26.7214 719.893 36.0814ZM757.296 2.80141L751.776 2.0014V1.1214L759.856 0.00140381H760.656V27.1214H760.816L761.056 26.6414C762.576 22.3214 764.976 18.8814 768.816 18.8814C774.816 18.8814 778.816 27.2014 778.816 38.8814C778.816 51.5214 774.176 60.6414 766.336 60.6414C763.376 60.6414 760.656 59.2814 758.416 56.6414L757.296 55.3614V2.80141ZM760.656 54.4014L760.976 54.9614C762.336 57.6014 764.576 59.3614 767.056 59.3614C772.176 59.3614 775.456 51.3614 775.456 40.4814C775.456 29.1214 772.176 21.5214 767.296 21.5214C764.416 21.5214 762.656 24.2414 761.216 27.9214L760.656 29.2814V54.4014ZM783.551 59.4414V58.4814L787.231 58.0814L788.591 57.2814V22.6414L783.071 21.6814V20.8814L790.991 19.6814H791.791L791.471 25.6814L791.231 31.8414H791.471L792.831 28.0814C794.511 23.0414 796.191 19.9214 801.471 19.9214H802.351V23.7614H800.591C797.231 23.7614 795.471 24.3214 793.471 29.0414L792.031 32.5614V57.2814L793.951 58.0814L799.151 58.4814V59.4414H783.551ZM816.706 60.6414C810.146 60.6414 805.906 51.4414 805.906 39.7614C805.906 27.2014 810.946 18.8014 817.746 18.8014C824.066 18.8014 827.026 26.0014 826.546 37.7614H809.266V38.4014C809.266 50.0014 812.466 58.1614 817.826 58.1614C820.386 58.1614 822.786 56.3214 825.426 52.0014L826.386 52.7214C823.106 58.5614 819.906 60.6414 816.706 60.6414ZM809.346 36.0814H823.266C823.426 30.0014 822.946 20.2414 817.106 20.2414C812.306 20.2414 809.666 26.7214 809.346 36.0814ZM838.712 60.1614C835.112 60.1614 832.312 56.8814 832.312 51.5214C832.312 45.3614 835.992 39.7614 844.312 36.4014L848.472 34.6414V31.2814C848.472 23.9214 846.312 20.4014 842.552 20.4014C838.472 20.4014 835.672 24.7214 836.952 32.6414H833.352C833.032 24.4814 837.352 18.8014 843.352 18.8014C849.272 18.8014 851.832 24.0014 851.832 32.3214V57.2014L853.112 57.7614L856.072 58.1614L856.152 59.0414L849.512 59.6014H848.552L848.712 54.8814L848.952 49.0414H848.712C846.712 55.6014 843.032 60.1614 838.712 60.1614ZM835.432 50.7214C835.432 55.2014 837.592 57.4414 840.152 57.4414C843.592 57.4414 846.792 53.4414 848.472 47.4414V36.0814L845.512 37.3614C841.512 39.0414 835.432 43.2014 835.432 50.7214ZM867.582 60.0814C865.182 60.0814 863.182 58.0014 863.182 54.4014V21.7614H857.102V20.6414L863.182 20.1614L865.582 7.8414H866.622V20.0014L872.942 19.7614H874.542V21.7614H866.622V54.6414C866.622 56.5614 867.422 57.6814 868.782 57.6814C870.142 57.6814 871.742 56.7214 873.982 54.1614L874.622 53.4414L875.502 54.2414L874.782 55.1214C871.902 58.6414 869.662 60.0814 867.582 60.0814ZM879.089 59.4414V58.4814L882.689 58.0814L884.129 57.2814V2.80141L878.689 2.0014V1.1214L886.689 0.00140381H887.489V27.5214C888.689 24.2414 891.409 18.8014 896.689 18.8014C901.009 18.8014 904.209 22.2414 904.209 30.1614V57.2814L905.409 58.0814L908.609 58.4814V59.4414H895.889V58.4814L899.489 58.0814L900.849 57.2814V30.6414C900.849 24.5614 899.009 21.4414 895.329 21.4414C892.689 21.4414 890.209 23.1214 888.049 28.1614L887.489 29.5214V57.2814L888.849 58.0814L892.449 58.4814V59.4414H879.089ZM936.637 60.6414C929.917 60.6414 925.437 52.0814 925.437 39.8414C925.437 27.3614 930.077 18.8014 936.877 18.8014C943.677 18.8014 948.157 27.2814 948.157 39.5214C948.157 52.0014 943.357 60.6414 936.637 60.6414ZM928.877 38.4014C928.877 50.1614 932.397 59.2014 937.197 59.2014C941.757 59.2014 944.717 51.6014 944.717 40.8814C944.717 29.1214 941.197 20.2414 936.397 20.2414C931.757 20.2414 928.877 27.9214 928.877 38.4014ZM952.848 59.4414V58.4814L956.448 58.0814L957.888 57.2814V21.8414H952.448V20.7214L957.888 20.2414V14.0014C957.888 5.5214 963.008 0.0814028 972.208 0.0814028H972.448V3.3614H971.728L964.688 2.8814C962.288 4.8014 961.248 7.60141 961.248 11.8414V20.0014L965.808 19.6014H969.408V21.8414H961.248V57.2814L963.088 58.0814L967.808 58.4814V59.4414H952.848ZM993.597 60.0814C991.197 60.0814 989.197 58.0014 989.197 54.4014V21.7614H983.117V20.6414L989.197 20.1614L991.597 7.8414H992.637V20.0014L998.957 19.7614H1000.56V21.7614H992.637V54.6414C992.637 56.5614 993.437 57.6814 994.797 57.6814C996.157 57.6814 997.757 56.7214 999.997 54.1614L1000.64 53.4414L1001.52 54.2414L1000.8 55.1214C997.917 58.6414 995.677 60.0814 993.597 60.0814ZM1005.1 59.4414V58.4814L1008.7 58.0814L1010.14 57.2814V2.80141L1004.7 2.0014V1.1214L1012.7 0.00140381H1013.5V27.5214C1014.7 24.2414 1017.42 18.8014 1022.7 18.8014C1027.02 18.8014 1030.22 22.2414 1030.22 30.1614V57.2814L1031.42 58.0814L1034.62 58.4814V59.4414H1021.9V58.4814L1025.5 58.0814L1026.86 57.2814V30.6414C1026.86 24.5614 1025.02 21.4414 1021.34 21.4414C1018.7 21.4414 1016.22 23.1214 1014.06 28.1614L1013.5 29.5214V57.2814L1014.86 58.0814L1018.46 58.4814V59.4414H1005.1ZM1049.67 60.6414C1043.11 60.6414 1038.87 51.4414 1038.87 39.7614C1038.87 27.2014 1043.91 18.8014 1050.71 18.8014C1057.03 18.8014 1059.99 26.0014 1059.51 37.7614H1042.23V38.4014C1042.23 50.0014 1045.43 58.1614 1050.79 58.1614C1053.35 58.1614 1055.75 56.3214 1058.39 52.0014L1059.35 52.7214C1056.07 58.5614 1052.87 60.6414 1049.67 60.6414ZM1042.31 36.0814H1056.23C1056.39 30.0014 1055.91 20.2414 1050.07 20.2414C1045.27 20.2414 1042.63 26.7214 1042.31 36.0814ZM1087.88 60.6414C1081.32 60.6414 1077.08 51.4414 1077.08 39.7614C1077.08 27.2014 1082.12 18.8014 1088.92 18.8014C1095.24 18.8014 1098.2 26.0014 1097.72 37.7614H1080.44V38.4014C1080.44 50.0014 1083.64 58.1614 1089 58.1614C1091.56 58.1614 1093.96 56.3214 1096.6 52.0014L1097.56 52.7214C1094.28 58.5614 1091.08 60.6414 1087.88 60.6414ZM1080.52 36.0814H1094.44C1094.6 30.0014 1094.12 20.2414 1088.28 20.2414C1083.48 20.2414 1080.84 26.7214 1080.52 36.0814ZM1109.88 60.1614C1106.28 60.1614 1103.48 56.8814 1103.48 51.5214C1103.48 45.3614 1107.16 39.7614 1115.48 36.4014L1119.64 34.6414V31.2814C1119.64 23.9214 1117.48 20.4014 1113.72 20.4014C1109.64 20.4014 1106.84 24.7214 1108.12 32.6414H1104.52C1104.2 24.4814 1108.52 18.8014 1114.52 18.8014C1120.44 18.8014 1123 24.0014 1123 32.3214V57.2014L1124.28 57.7614L1127.24 58.1614L1127.32 59.0414L1120.68 59.6014H1119.72L1119.88 54.8814L1120.12 49.0414H1119.88C1117.88 55.6014 1114.2 60.1614 1109.88 60.1614ZM1106.6 50.7214C1106.6 55.2014 1108.76 57.4414 1111.32 57.4414C1114.76 57.4414 1117.96 53.4414 1119.64 47.4414V36.0814L1116.68 37.3614C1112.68 39.0414 1106.6 43.2014 1106.6 50.7214ZM1132.22 59.4414V58.4814L1135.9 58.0814L1137.26 57.2814V22.6414L1131.74 21.6814V20.8814L1139.66 19.6814H1140.46L1140.14 25.6814L1139.9 31.8414H1140.14L1141.5 28.0814C1143.18 23.0414 1144.86 19.9214 1150.14 19.9214H1151.02V23.7614H1149.26C1145.9 23.7614 1144.14 24.3214 1142.14 29.0414L1140.7 32.5614V57.2814L1142.62 58.0814L1147.82 58.4814V59.4414H1132.22ZM1165.78 60.0814C1163.38 60.0814 1161.38 58.0014 1161.38 54.4014V21.7614H1155.3V20.6414L1161.38 20.1614L1163.78 7.8414H1164.82V20.0014L1171.14 19.7614H1172.74V21.7614H1164.82V54.6414C1164.82 56.5614 1165.62 57.6814 1166.98 57.6814C1168.34 57.6814 1169.94 56.7214 1172.18 54.1614L1172.82 53.4414L1173.7 54.2414L1172.98 55.1214C1170.1 58.6414 1167.86 60.0814 1165.78 60.0814ZM1177.29 59.4414V58.4814L1180.89 58.0814L1182.33 57.2814V2.80141L1176.89 2.0014V1.1214L1184.89 0.00140381H1185.69V27.5214C1186.89 24.2414 1189.61 18.8014 1194.89 18.8014C1199.21 18.8014 1202.41 22.2414 1202.41 30.1614V57.2814L1203.61 58.0814L1206.81 58.4814V59.4414H1194.09V58.4814L1197.69 58.0814L1199.05 57.2814V30.6414C1199.05 24.5614 1197.21 21.4414 1193.53 21.4414C1190.89 21.4414 1188.41 23.1214 1186.25 28.1614L1185.69 29.5214V57.2814L1187.05 58.0814L1190.65 58.4814V59.4414H1177.29ZM1212.24 63.6814C1215.28 63.4414 1217.12 61.6814 1217.2 58.6414H1216.88C1216.4 59.3614 1215.52 59.7614 1214.64 59.7614C1212.96 59.7614 1211.6 58.4014 1211.6 56.3214C1211.6 54.2414 1213.04 52.5614 1215.04 52.5614C1217.04 52.5614 1218.8 54.1614 1218.8 57.6014C1218.8 61.6014 1216.48 64.9614 1212.24 65.0414V63.6814ZM12.8 162.641C6.79996 162.641 1.99996 154.801 1.99996 141.921C1.99996 129.361 6.87996 120.801 13.68 120.801C19.36 120.801 22.48 126.881 22.08 135.921H18.4C19.68 127.521 17.44 122.241 13.2 122.241C7.91996 122.241 5.35996 130.241 5.35996 140.641C5.35996 153.361 9.11996 160.161 13.92 160.161C16.56 160.161 18.96 158.001 21.36 154.081L22.32 154.801C19.52 159.921 16.32 162.641 12.8 162.641ZM34.3375 162.161C30.7375 162.161 27.9375 158.881 27.9375 153.521C27.9375 147.361 31.6175 141.761 39.9375 138.401L44.0975 136.641V133.281C44.0975 125.921 41.9375 122.401 38.1775 122.401C34.0975 122.401 31.2975 126.721 32.5775 134.641H28.9775C28.6575 126.481 32.9775 120.801 38.9775 120.801C44.8975 120.801 47.4575 126.001 47.4575 134.321V159.201L48.7375 159.761L51.6975 160.161L51.7775 161.041L45.1375 161.601H44.1775L44.3375 156.881L44.5775 151.041H44.3375C42.3375 157.601 38.6575 162.161 34.3375 162.161ZM31.0575 152.721C31.0575 157.201 33.2175 159.441 35.7775 159.441C39.2175 159.441 42.4175 155.441 44.0975 149.441V138.081L41.1375 139.361C37.1375 141.041 31.0575 145.201 31.0575 152.721ZM56.6762 161.441V160.481L60.3562 160.081L61.7162 159.281V124.641L56.1962 123.681V122.881L64.1162 121.681H64.9162L64.5962 127.681L64.3562 133.841H64.5962L65.9562 130.081C67.6362 125.041 69.3162 121.921 74.5962 121.921H75.4762V125.761H73.7162C70.3562 125.761 68.5962 126.321 66.5962 131.041L65.1562 134.561V159.281L67.0762 160.081L72.2762 160.481V161.441H56.6762ZM80.5825 161.441V160.481L84.2625 160.081L85.6225 159.281V124.641L80.1025 123.681V122.881L88.0225 121.681H88.8225L88.5025 127.681L88.2625 133.841H88.5025L89.8625 130.081C91.5425 125.041 93.2225 121.921 98.5025 121.921H99.3825V125.761H97.6225C94.2625 125.761 92.5025 126.321 90.5025 131.041L89.0625 134.561V159.281L90.9825 160.081L96.1825 160.481V161.441H80.5825ZM104.781 177.441V174.241H105.741L112.621 174.561C114.221 172.961 115.181 170.801 115.901 167.841L117.661 161.201L106.941 123.841L104.141 122.881V122.001H116.861V122.881L111.101 123.761V125.281L119.261 155.761H119.661L127.901 125.281V123.761L123.101 122.881V122.001H132.701V122.881L130.061 123.841L117.981 167.041C115.661 174.961 112.221 177.441 105.981 177.441H104.781ZM143.221 113.361C141.221 113.361 139.781 111.841 139.781 109.841C139.781 107.761 141.221 106.321 143.221 106.321C145.221 106.321 146.661 107.761 146.661 109.841C146.661 111.841 145.221 113.361 143.221 113.361ZM136.981 123.681V122.881L144.981 121.681H145.701V159.281L147.061 160.081L150.501 160.481V161.441H137.301V160.481L140.981 160.081L142.341 159.281V124.561L136.981 123.681ZM172.226 161.441V160.481L175.826 160.081L177.186 159.281V132.641C177.186 126.561 175.346 123.441 171.666 123.441C169.026 123.441 166.546 125.121 164.386 130.161L163.826 131.521V159.281L165.186 160.081L168.786 160.481V161.441H155.426V160.481L159.026 160.081L160.466 159.281V124.641L155.026 123.761V122.881L162.866 121.761H163.666L163.426 127.761L163.266 130.561H163.426L163.746 129.761C164.866 126.481 167.586 120.801 173.026 120.801C177.346 120.801 180.546 124.241 180.546 132.161V159.281L181.746 160.081L184.946 160.481V161.441H172.226ZM199.407 178.561C193.167 178.561 189.167 174.721 189.167 168.881C189.167 164.641 191.247 161.201 193.967 158.721L195.087 157.601C192.847 156.401 192.687 153.441 194.367 149.361L195.567 146.081C192.847 143.761 191.247 139.761 191.247 134.801C191.247 126.721 195.407 120.801 201.647 120.801C203.647 120.801 205.407 121.441 206.927 122.561C208.847 121.281 211.087 120.321 213.727 119.841H214.447V123.041H207.567C210.127 125.361 211.647 129.281 211.647 134.161C211.647 142.241 207.487 148.161 201.247 148.161C199.567 148.161 197.967 147.681 196.687 146.881L196.047 149.281C195.247 152.401 195.167 153.761 195.567 155.441H205.327C210.927 155.441 213.967 158.961 213.967 164.321C213.967 172.001 207.727 178.561 199.407 178.561ZM192.207 168.241C192.207 173.681 195.887 177.041 200.607 177.041C206.447 177.041 210.847 171.841 210.847 165.601C210.847 161.441 208.847 158.321 203.967 158.321H198.367C197.487 158.321 196.687 158.241 196.047 158.001L195.407 158.961C193.807 161.281 192.207 164.721 192.207 168.241ZM194.607 134.001C194.607 141.681 197.727 146.721 201.807 146.721C205.727 146.721 208.367 142.081 208.367 134.881C208.367 127.361 205.327 122.161 201.167 122.161C197.087 122.161 194.607 127.041 194.607 134.001ZM230.726 177.441V176.481L234.406 176.081L235.766 175.281V124.561L230.326 123.761V122.881L238.406 121.761H239.206L239.126 127.761L239.046 128.961H239.366L239.606 128.481C241.126 124.161 243.526 120.721 247.366 120.721C253.366 120.721 257.366 129.041 257.366 140.721C257.366 153.361 252.726 162.481 244.886 162.481C242.886 162.481 240.966 161.841 239.206 160.561V175.281L241.366 176.081L246.886 176.481V177.441H230.726ZM239.206 156.241L239.526 156.801C240.886 159.441 243.126 161.201 245.606 161.201C250.726 161.201 254.006 153.201 254.006 142.321C254.006 130.961 250.726 123.361 245.846 123.361C242.966 123.361 241.206 126.081 239.766 129.761L239.206 131.201V156.241ZM273.901 162.321C269.181 162.321 266.381 158.081 266.381 149.921V124.401L261.261 123.601V122.721L268.861 121.761H269.661V149.841C269.661 156.161 271.661 159.841 275.101 159.841C278.861 159.841 280.941 155.281 282.141 151.121L282.701 149.121V124.481L277.341 123.601V122.721L285.181 121.761H286.061V159.121L287.341 159.761L290.301 160.081L290.381 161.041L283.741 161.601H282.781L283.021 156.801L283.341 150.001H283.101L282.781 151.281C281.421 156.641 279.341 162.321 273.901 162.321ZM295.348 161.441V160.481L299.028 160.081L300.388 159.281V124.641L294.868 123.681V122.881L302.788 121.681H303.588L303.268 127.681L303.028 133.841H303.268L304.628 130.081C306.308 125.041 307.988 121.921 313.268 121.921H314.148V125.761H312.388C309.028 125.761 307.268 126.321 305.268 131.041L303.828 134.561V159.281L305.748 160.081L310.948 160.481V161.441H295.348ZM328.503 162.641C321.943 162.641 317.703 153.441 317.703 141.761C317.703 129.201 322.743 120.801 329.543 120.801C335.863 120.801 338.823 128.001 338.343 139.761H321.063V140.401C321.063 152.001 324.263 160.161 329.623 160.161C332.183 160.161 334.583 158.321 337.223 154.001L338.183 154.721C334.903 160.561 331.703 162.641 328.503 162.641ZM321.143 138.081H335.063C335.223 132.001 334.743 122.241 328.903 122.241C324.103 122.241 321.463 128.721 321.143 138.081ZM366.706 162.641C360.146 162.641 355.906 153.441 355.906 141.761C355.906 129.201 360.946 120.801 367.746 120.801C374.066 120.801 377.026 128.001 376.546 139.761H359.266V140.401C359.266 152.001 362.466 160.161 367.826 160.161C370.386 160.161 372.786 158.321 375.426 154.001L376.386 154.721C373.106 160.561 369.906 162.641 366.706 162.641ZM359.346 138.081H373.266C373.426 132.001 372.946 122.241 367.106 122.241C362.306 122.241 359.666 128.721 359.346 138.081ZM397.851 161.441V160.481L401.451 160.081L402.811 159.281V132.641C402.811 126.561 400.971 123.441 397.291 123.441C394.651 123.441 392.171 125.121 390.011 130.161L389.451 131.521V159.281L390.811 160.081L394.411 160.481V161.441H381.051V160.481L384.651 160.081L386.091 159.281V124.641L380.651 123.761V122.881L388.491 121.761H389.291L389.051 127.761L388.891 130.561H389.051L389.371 129.761C390.491 126.481 393.211 120.801 398.651 120.801C402.971 120.801 406.171 124.241 406.171 132.161V159.281L407.371 160.081L410.571 160.481V161.441H397.851ZM425.612 162.641C419.052 162.641 414.812 153.441 414.812 141.761C414.812 129.201 419.852 120.801 426.652 120.801C432.972 120.801 435.932 128.001 435.452 139.761H418.172V140.401C418.172 152.001 421.372 160.161 426.732 160.161C429.292 160.161 431.692 158.321 434.332 154.001L435.292 154.721C432.012 160.561 428.812 162.641 425.612 162.641ZM418.252 138.081H432.172C432.332 132.001 431.852 122.241 426.012 122.241C421.212 122.241 418.572 128.721 418.252 138.081ZM439.957 161.441V160.481L443.637 160.081L444.997 159.281V124.641L439.477 123.681V122.881L447.397 121.681H448.197L447.877 127.681L447.637 133.841H447.877L449.237 130.081C450.917 125.041 452.597 121.921 457.877 121.921H458.757V125.761H456.997C453.637 125.761 451.877 126.321 449.877 131.041L448.437 134.561V159.281L450.357 160.081L455.557 160.481V161.441H439.957ZM471.672 178.561C465.432 178.561 461.432 174.721 461.432 168.881C461.432 164.641 463.512 161.201 466.232 158.721L467.352 157.601C465.112 156.401 464.952 153.441 466.632 149.361L467.832 146.081C465.112 143.761 463.512 139.761 463.512 134.801C463.512 126.721 467.672 120.801 473.912 120.801C475.912 120.801 477.672 121.441 479.192 122.561C481.112 121.281 483.352 120.321 485.992 119.841H486.712V123.041H479.832C482.392 125.361 483.912 129.281 483.912 134.161C483.912 142.241 479.752 148.161 473.512 148.161C471.832 148.161 470.232 147.681 468.952 146.881L468.312 149.281C467.512 152.401 467.432 153.761 467.832 155.441H477.592C483.192 155.441 486.232 158.961 486.232 164.321C486.232 172.001 479.992 178.561 471.672 178.561ZM464.472 168.241C464.472 173.681 468.152 177.041 472.872 177.041C478.712 177.041 483.112 171.841 483.112 165.601C483.112 161.441 481.112 158.321 476.232 158.321H470.632C469.752 158.321 468.952 158.241 468.312 158.001L467.672 158.961C466.072 161.281 464.472 164.721 464.472 168.241ZM466.872 134.001C466.872 141.681 469.992 146.721 474.072 146.721C477.992 146.721 480.632 142.081 480.632 134.881C480.632 127.361 477.592 122.161 473.432 122.161C469.352 122.161 466.872 127.041 466.872 134.001ZM491.89 177.441V174.241H492.85L499.73 174.561C501.33 172.961 502.29 170.801 503.01 167.841L504.77 161.201L494.05 123.841L491.25 122.881V122.001H503.97V122.881L498.21 123.761V125.281L506.37 155.761H506.77L515.01 125.281V123.761L510.21 122.881V122.001H519.81V122.881L517.17 123.841L505.09 167.041C502.77 174.961 499.33 177.441 493.09 177.441H491.89ZM543.91 162.081C541.51 162.081 539.51 160.001 539.51 156.401V123.761H533.43V122.641L539.51 122.161L541.91 109.841H542.95V122.001L549.27 121.761H550.87V123.761H542.95V156.641C542.95 158.561 543.75 159.681 545.11 159.681C546.47 159.681 548.07 158.721 550.31 156.161L550.95 155.441L551.83 156.241L551.11 157.121C548.23 160.641 545.99 162.081 543.91 162.081ZM566.95 162.641C560.23 162.641 555.75 154.081 555.75 141.841C555.75 129.361 560.39 120.801 567.19 120.801C573.99 120.801 578.47 129.281 578.47 141.521C578.47 154.001 573.67 162.641 566.95 162.641ZM559.19 140.401C559.19 152.161 562.71 161.201 567.51 161.201C572.07 161.201 575.03 153.601 575.03 142.881C575.03 131.121 571.51 122.241 566.71 122.241C562.07 122.241 559.19 129.921 559.19 140.401ZM605.501 178.561C599.261 178.561 595.261 174.721 595.261 168.881C595.261 164.641 597.341 161.201 600.061 158.721L601.181 157.601C598.941 156.401 598.781 153.441 600.461 149.361L601.661 146.081C598.941 143.761 597.341 139.761 597.341 134.801C597.341 126.721 601.501 120.801 607.741 120.801C609.741 120.801 611.501 121.441 613.021 122.561C614.941 121.281 617.181 120.321 619.821 119.841H620.541V123.041H613.661C616.221 125.361 617.741 129.281 617.741 134.161C617.741 142.241 613.581 148.161 607.341 148.161C605.661 148.161 604.061 147.681 602.781 146.881L602.141 149.281C601.341 152.401 601.261 153.761 601.661 155.441H611.421C617.021 155.441 620.061 158.961 620.061 164.321C620.061 172.001 613.821 178.561 605.501 178.561ZM598.301 168.241C598.301 173.681 601.981 177.041 606.701 177.041C612.541 177.041 616.941 171.841 616.941 165.601C616.941 161.441 614.941 158.321 610.061 158.321H604.461C603.581 158.321 602.781 158.241 602.141 158.001L601.501 158.961C599.901 161.281 598.301 164.721 598.301 168.241ZM600.701 134.001C600.701 141.681 603.821 146.721 607.901 146.721C611.821 146.721 614.461 142.081 614.461 134.881C614.461 127.361 611.421 122.161 607.261 122.161C603.181 122.161 600.701 127.041 600.701 134.001ZM637.807 162.321C633.087 162.321 630.287 158.081 630.287 149.921V124.401L625.167 123.601V122.721L632.767 121.761H633.567V149.841C633.567 156.161 635.567 159.841 639.007 159.841C642.767 159.841 644.847 155.281 646.047 151.121L646.607 149.121V124.481L641.247 123.601V122.721L649.087 121.761H649.967V159.121L651.247 159.761L654.207 160.081L654.287 161.041L647.647 161.601H646.687L646.927 156.801L647.247 150.001H647.007L646.687 151.281C645.327 156.641 643.247 162.321 637.807 162.321ZM665.174 113.361C663.174 113.361 661.734 111.841 661.734 109.841C661.734 107.761 663.174 106.321 665.174 106.321C667.174 106.321 668.614 107.761 668.614 109.841C668.614 111.841 667.174 113.361 665.174 113.361ZM658.934 123.681V122.881L666.934 121.681H667.654V159.281L669.014 160.081L672.454 160.481V161.441H659.254V160.481L662.934 160.081L664.294 159.281V124.561L658.934 123.681ZM686.687 162.561C680.687 162.561 676.687 154.241 676.687 142.561C676.687 129.921 681.327 120.801 689.167 120.801C691.167 120.801 693.087 121.441 694.847 122.721V104.881L687.727 104.001V103.121L697.327 102.001H698.287V159.201L699.487 159.761L702.527 160.081V161.041L695.807 161.601H694.847L694.927 156.801L695.007 154.321H694.687L694.447 154.801C692.927 159.121 690.527 162.561 686.687 162.561ZM680.047 140.961C680.047 152.321 683.327 159.921 688.207 159.921C691.087 159.921 692.847 157.201 694.287 153.521L694.847 152.081V127.041L694.527 126.481C693.167 123.841 690.927 122.081 688.447 122.081C683.327 122.081 680.047 130.081 680.047 140.961ZM717.644 162.641C711.084 162.641 706.844 153.441 706.844 141.761C706.844 129.201 711.884 120.801 718.684 120.801C725.004 120.801 727.964 128.001 727.484 139.761H710.204V140.401C710.204 152.001 713.404 160.161 718.764 160.161C721.324 160.161 723.724 158.321 726.364 154.001L727.324 154.721C724.044 160.561 720.844 162.641 717.644 162.641ZM710.284 138.081H724.204C724.364 132.001 723.884 122.241 718.044 122.241C713.244 122.241 710.604 128.721 710.284 138.081ZM744.247 161.441V160.481L747.927 160.081L749.287 159.281V104.881L743.767 104.001V103.121L751.847 102.001H752.647V159.281L753.847 160.081L757.127 160.481V161.441H744.247ZM771.557 162.321C766.837 162.321 764.037 158.081 764.037 149.921V124.401L758.917 123.601V122.721L766.517 121.761H767.317V149.841C767.317 156.161 769.317 159.841 772.757 159.841C776.517 159.841 778.597 155.281 779.797 151.121L780.357 149.121V124.481L774.997 123.601V122.721L782.837 121.761H783.717V159.121L784.997 159.761L787.957 160.081L788.037 161.041L781.397 161.601H780.437L780.677 156.801L780.997 150.001H780.757L780.437 151.281C779.077 156.641 776.997 162.321 771.557 162.321ZM803.112 162.641C797.112 162.641 792.312 154.801 792.312 141.921C792.312 129.361 797.192 120.801 803.992 120.801C809.672 120.801 812.792 126.881 812.392 135.921H808.712C809.992 127.521 807.752 122.241 803.512 122.241C798.232 122.241 795.672 130.241 795.672 140.641C795.672 153.361 799.432 160.161 804.232 160.161C806.872 160.161 809.272 158.001 811.672 154.081L812.632 154.801C809.832 159.921 806.632 162.641 803.112 162.641ZM816.354 161.441V160.481L820.034 160.081L821.394 159.281V104.801L815.954 104.001V103.121L823.954 102.001H824.754V139.201L836.994 125.361V123.841L831.714 122.961V122.001H844.834V122.881L840.594 123.841L827.234 138.561L840.274 159.441L844.914 160.481V161.441H837.714L824.754 140.721V159.281L826.434 160.081L830.754 160.481V161.441H816.354ZM849.896 165.681C852.936 165.441 854.776 163.681 854.856 160.641H854.536C854.056 161.361 853.176 161.761 852.296 161.761C850.616 161.761 849.256 160.401 849.256 158.321C849.256 156.241 850.696 154.561 852.696 154.561C854.696 154.561 856.456 156.161 856.456 159.601C856.456 163.601 854.136 166.961 849.896 167.041V165.681ZM873.239 161.441V160.481L876.919 160.081L878.279 159.281V124.641L872.759 123.681V122.881L880.679 121.681H881.479L881.159 127.681L880.919 133.841H881.159L882.519 130.081C884.199 125.041 885.879 121.921 891.159 121.921H892.039V125.761H890.279C886.919 125.761 885.159 126.321 883.159 131.041L881.719 134.561V159.281L883.639 160.081L888.839 160.481V161.441H873.239ZM906.394 162.641C899.834 162.641 895.594 153.441 895.594 141.761C895.594 129.201 900.634 120.801 907.434 120.801C913.754 120.801 916.714 128.001 916.234 139.761H898.954V140.401C898.954 152.001 902.154 160.161 907.514 160.161C910.074 160.161 912.474 158.321 915.114 154.001L916.074 154.721C912.794 160.561 909.594 162.641 906.394 162.641ZM899.034 138.081H912.954C913.114 132.001 912.634 122.241 906.794 122.241C901.994 122.241 899.354 128.721 899.034 138.081ZM931.451 162.561C928.091 162.561 925.131 160.881 922.971 158.561L922.251 147.921H923.691L924.171 150.481C925.371 157.041 928.091 161.361 932.171 161.361C935.771 161.361 937.291 157.921 937.291 154.241C937.291 149.281 934.331 146.481 932.811 144.961L927.051 139.841C925.451 138.321 922.651 135.441 922.651 130.241C922.651 124.241 926.251 120.881 931.131 120.881C934.331 120.881 937.051 122.481 938.971 124.561L939.611 134.241H938.331L937.851 131.841C936.731 126.961 934.571 122.001 930.491 122.001C927.371 122.001 925.531 125.041 925.531 128.881C925.531 132.241 926.811 134.721 929.131 136.801L934.891 141.921C937.211 144.081 940.251 147.041 940.251 152.641C940.251 158.401 936.971 162.561 931.451 162.561ZM955.082 162.081C952.682 162.081 950.682 160.001 950.682 156.401V123.761H944.602V122.641L950.682 122.161L953.082 109.841H954.122V122.001L960.442 121.761H962.042V123.761H954.122V156.641C954.122 158.561 954.922 159.681 956.282 159.681C957.642 159.681 959.242 158.721 961.482 156.161L962.122 155.441L963.002 156.241L962.282 157.121C959.402 160.641 957.162 162.081 955.082 162.081ZM978.122 162.641C971.402 162.641 966.922 154.081 966.922 141.841C966.922 129.361 971.562 120.801 978.362 120.801C985.162 120.801 989.642 129.281 989.642 141.521C989.642 154.001 984.842 162.641 978.122 162.641ZM970.362 140.401C970.362 152.161 973.882 161.201 978.682 161.201C983.242 161.201 986.202 153.601 986.202 142.881C986.202 131.121 982.682 122.241 977.882 122.241C973.242 122.241 970.362 129.921 970.362 140.401ZM994.332 161.441V160.481L998.012 160.081L999.372 159.281V124.641L993.852 123.681V122.881L1001.77 121.681H1002.57L1002.25 127.681L1002.01 133.841H1002.25L1003.61 130.081C1005.29 125.041 1006.97 121.921 1012.25 121.921H1013.13V125.761H1011.37C1008.01 125.761 1006.25 126.321 1004.25 131.041L1002.81 134.561V159.281L1004.73 160.081L1009.93 160.481V161.441H994.332ZM1027.49 162.641C1020.93 162.641 1016.69 153.441 1016.69 141.761C1016.69 129.201 1021.73 120.801 1028.53 120.801C1034.85 120.801 1037.81 128.001 1037.33 139.761H1020.05V140.401C1020.05 152.001 1023.25 160.161 1028.61 160.161C1031.17 160.161 1033.57 158.321 1036.21 154.001L1037.17 154.721C1033.89 160.561 1030.69 162.641 1027.49 162.641ZM1020.13 138.081H1034.05C1034.21 132.001 1033.73 122.241 1027.89 122.241C1023.09 122.241 1020.45 128.721 1020.13 138.081ZM1057.53 104.801L1052.01 104.001V103.121L1060.09 102.001H1060.89V129.121H1061.05L1061.29 128.641C1062.81 124.321 1065.21 120.881 1069.05 120.881C1075.05 120.881 1079.05 129.201 1079.05 140.881C1079.05 153.521 1074.41 162.641 1066.57 162.641C1063.61 162.641 1060.89 161.281 1058.65 158.641L1057.53 157.361V104.801ZM1060.89 156.401L1061.21 156.961C1062.57 159.601 1064.81 161.361 1067.29 161.361C1072.41 161.361 1075.69 153.361 1075.69 142.481C1075.69 131.121 1072.41 123.521 1067.53 123.521C1064.65 123.521 1062.89 126.241 1061.45 129.921L1060.89 131.281V156.401ZM1091.21 162.161C1087.61 162.161 1084.81 158.881 1084.81 153.521C1084.81 147.361 1088.49 141.761 1096.81 138.401L1100.97 136.641V133.281C1100.97 125.921 1098.81 122.401 1095.05 122.401C1090.97 122.401 1088.17 126.721 1089.45 134.641H1085.85C1085.53 126.481 1089.85 120.801 1095.85 120.801C1101.77 120.801 1104.33 126.001 1104.33 134.321V159.201L1105.61 159.761L1108.57 160.161L1108.65 161.041L1102.01 161.601H1101.05L1101.21 156.881L1101.45 151.041H1101.21C1099.21 157.601 1095.53 162.161 1091.21 162.161ZM1087.93 152.721C1087.93 157.201 1090.09 159.441 1092.65 159.441C1096.09 159.441 1099.29 155.441 1100.97 149.441V138.081L1098.01 139.361C1094.01 141.041 1087.93 145.201 1087.93 152.721ZM1113.15 161.441V160.481L1116.83 160.081L1118.19 159.281V104.881L1112.67 104.001V103.121L1120.75 102.001H1121.55V159.281L1122.75 160.081L1126.03 160.481V161.441H1113.15ZM1137.07 162.161C1133.47 162.161 1130.67 158.881 1130.67 153.521C1130.67 147.361 1134.35 141.761 1142.67 138.401L1146.83 136.641V133.281C1146.83 125.921 1144.67 122.401 1140.91 122.401C1136.83 122.401 1134.03 126.721 1135.31 134.641H1131.71C1131.39 126.481 1135.71 120.801 1141.71 120.801C1147.63 120.801 1150.19 126.001 1150.19 134.321V159.201L1151.47 159.761L1154.43 160.161L1154.51 161.041L1147.87 161.601H1146.91L1147.07 156.881L1147.31 151.041H1147.07C1145.07 157.601 1141.39 162.161 1137.07 162.161ZM1133.79 152.721C1133.79 157.201 1135.95 159.441 1138.51 159.441C1141.95 159.441 1145.15 155.441 1146.83 149.441V138.081L1143.87 139.361C1139.87 141.041 1133.79 145.201 1133.79 152.721ZM1176.21 161.441V160.481L1179.81 160.081L1181.17 159.281V132.641C1181.17 126.561 1179.33 123.441 1175.65 123.441C1173.01 123.441 1170.53 125.121 1168.37 130.161L1167.81 131.521V159.281L1169.17 160.081L1172.77 160.481V161.441H1159.41V160.481L1163.01 160.081L1164.45 159.281V124.641L1159.01 123.761V122.881L1166.85 121.761H1167.65L1167.41 127.761L1167.25 130.561H1167.41L1167.73 129.761C1168.85 126.481 1171.57 120.801 1177.01 120.801C1181.33 120.801 1184.53 124.241 1184.53 132.161V159.281L1185.73 160.081L1188.93 160.481V161.441H1176.21ZM1203.97 162.641C1197.97 162.641 1193.17 154.801 1193.17 141.921C1193.17 129.361 1198.05 120.801 1204.85 120.801C1210.53 120.801 1213.65 126.881 1213.25 135.921H1209.57C1210.85 127.521 1208.61 122.241 1204.37 122.241C1199.09 122.241 1196.53 130.241 1196.53 140.641C1196.53 153.361 1200.29 160.161 1205.09 160.161C1207.73 160.161 1210.13 158.001 1212.53 154.081L1213.49 154.801C1210.69 159.921 1207.49 162.641 1203.97 162.641ZM1229.83 162.641C1223.27 162.641 1219.03 153.441 1219.03 141.761C1219.03 129.201 1224.07 120.801 1230.87 120.801C1237.19 120.801 1240.15 128.001 1239.67 139.761H1222.39V140.401C1222.39 152.001 1225.59 160.161 1230.95 160.161C1233.51 160.161 1235.91 158.321 1238.55 154.001L1239.51 154.721C1236.23 160.561 1233.03 162.641 1229.83 162.641ZM1222.47 138.081H1236.39C1236.55 132.001 1236.07 122.241 1230.23 122.241C1225.43 122.241 1222.79 128.721 1222.47 138.081ZM1245.44 165.681C1248.48 165.441 1250.32 163.681 1250.4 160.641H1250.08C1249.6 161.361 1248.72 161.761 1247.84 161.761C1246.16 161.761 1244.8 160.401 1244.8 158.321C1244.8 156.241 1246.24 154.561 1248.24 154.561C1250.24 154.561 1252 156.161 1252 159.601C1252 163.601 1249.68 166.961 1245.44 167.041V165.681ZM8.39996 264.161C4.79996 264.161 1.99996 260.881 1.99996 255.521C1.99996 249.361 5.67996 243.761 14 240.401L18.16 238.641V235.281C18.16 227.921 16 224.401 12.24 224.401C8.15996 224.401 5.35996 228.721 6.63996 236.641H3.03996C2.71996 228.481 7.03996 222.801 13.04 222.801C18.96 222.801 21.52 228.001 21.52 236.321V261.201L22.8 261.761L25.76 262.161L25.84 263.041L19.2 263.601H18.24L18.4 258.881L18.64 253.041H18.4C16.4 259.601 12.72 264.161 8.39996 264.161ZM5.11996 254.721C5.11996 259.201 7.27996 261.441 9.83996 261.441C13.28 261.441 16.48 257.441 18.16 251.441V240.081L15.2 241.361C11.2 243.041 5.11996 247.201 5.11996 254.721ZM47.5387 263.441V262.481L51.1387 262.081L52.4987 261.281V234.641C52.4987 228.561 50.6587 225.441 46.9787 225.441C44.3387 225.441 41.8587 227.121 39.6987 232.161L39.1387 233.521V261.281L40.4987 262.081L44.0987 262.481V263.441H30.7387V262.481L34.3387 262.081L35.7787 261.281V226.641L30.3387 225.761V224.881L38.1787 223.761H38.9787L38.7387 229.761L38.5787 232.561H38.7387L39.0587 231.761C40.1787 228.481 42.8987 222.801 48.3387 222.801C52.6587 222.801 55.8587 226.241 55.8587 234.161V261.281L57.0587 262.081L60.2587 262.481V263.441H47.5387ZM74.5 264.561C68.5 264.561 64.5 256.241 64.5 244.561C64.5 231.921 69.14 222.801 76.98 222.801C78.98 222.801 80.9 223.441 82.66 224.721V206.881L75.54 206.001V205.121L85.14 204.001H86.1V261.201L87.3 261.761L90.34 262.081V263.041L83.62 263.601H82.66L82.74 258.801L82.82 256.321H82.5L82.26 256.801C80.74 261.121 78.34 264.561 74.5 264.561ZM67.86 242.961C67.86 254.321 71.14 261.921 76.02 261.921C78.9 261.921 80.66 259.201 82.1 255.521L82.66 254.081V229.041L82.34 228.481C80.98 225.841 78.74 224.081 76.26 224.081C71.14 224.081 67.86 232.081 67.86 242.961ZM118.901 264.321C114.181 264.321 111.381 260.081 111.381 251.921V226.401L106.261 225.601V224.721L113.861 223.761H114.661V251.841C114.661 258.161 116.661 261.841 120.101 261.841C123.861 261.841 125.941 257.281 127.141 253.121L127.701 251.121V226.481L122.341 225.601V224.721L130.181 223.761H131.061V261.121L132.341 261.761L135.301 262.081L135.381 263.041L128.741 263.601H127.781L128.021 258.801L128.341 252.001H128.101L127.781 253.281C126.421 258.641 124.341 264.321 118.901 264.321ZM138.069 279.441V278.481L141.749 278.081L143.109 277.281V226.561L137.669 225.761V224.881L145.749 223.761H146.549L146.469 229.761L146.389 230.961H146.709L146.949 230.481C148.469 226.161 150.869 222.721 154.709 222.721C160.709 222.721 164.709 231.041 164.709 242.721C164.709 255.361 160.069 264.481 152.229 264.481C150.229 264.481 148.309 263.841 146.549 262.561V277.281L148.709 278.081L154.229 278.481V279.441H138.069ZM146.549 258.241L146.869 258.801C148.229 261.441 150.469 263.201 152.949 263.201C158.069 263.201 161.349 255.201 161.349 244.321C161.349 232.961 158.069 225.361 153.189 225.361C150.309 225.361 148.549 228.081 147.109 231.761L146.549 233.201V258.241ZM168.622 263.441V262.481L172.302 262.081L173.662 261.281V206.881L168.142 206.001V205.121L176.222 204.001H177.022V261.281L178.222 262.081L181.502 262.481V263.441H168.622ZM192.362 215.361C190.362 215.361 188.922 213.841 188.922 211.841C188.922 209.761 190.362 208.321 192.362 208.321C194.362 208.321 195.802 209.761 195.802 211.841C195.802 213.841 194.362 215.361 192.362 215.361ZM186.122 225.681V224.881L194.122 223.681H194.842V261.281L196.202 262.081L199.642 262.481V263.441H186.442V262.481L190.122 262.081L191.482 261.281V226.561L186.122 225.681ZM204.567 263.441V262.481L208.167 262.081L209.607 261.281V225.841H204.167V224.721L209.607 224.241V218.001C209.607 209.521 214.727 204.081 223.927 204.081H224.167V207.361H223.447L216.407 206.881C214.007 208.801 212.967 211.601 212.967 215.841V224.001L217.527 223.601H221.127V225.841H212.967V261.281L214.807 262.081L219.527 262.481V263.441H204.567ZM235.551 264.081C233.151 264.081 231.151 262.001 231.151 258.401V225.761H225.071V224.641L231.151 224.161L233.551 211.841H234.591V224.001L240.911 223.761H242.511V225.761H234.591V258.641C234.591 260.561 235.391 261.681 236.751 261.681C238.111 261.681 239.711 260.721 241.951 258.161L242.591 257.441L243.471 258.241L242.751 259.121C239.871 262.641 237.631 264.081 235.551 264.081ZM268.207 264.081C265.807 264.081 263.807 262.001 263.807 258.401V225.761H257.727V224.641L263.807 224.161L266.207 211.841H267.247V224.001L273.567 223.761H275.167V225.761H267.247V258.641C267.247 260.561 268.047 261.681 269.407 261.681C270.767 261.681 272.367 260.721 274.607 258.161L275.247 257.441L276.127 258.241L275.407 259.121C272.527 262.641 270.287 264.081 268.207 264.081ZM279.714 263.441V262.481L283.314 262.081L284.754 261.281V206.801L279.314 206.001V205.121L287.314 204.001H288.114V231.521C289.314 228.241 292.034 222.801 297.314 222.801C301.634 222.801 304.834 226.241 304.834 234.161V261.281L306.034 262.081L309.234 262.481V263.441H296.514V262.481L300.114 262.081L301.474 261.281V234.641C301.474 228.561 299.634 225.441 295.954 225.441C293.314 225.441 290.834 227.121 288.674 232.161L288.114 233.521V261.281L289.474 262.081L293.074 262.481V263.441H279.714ZM324.284 264.641C317.724 264.641 313.484 255.441 313.484 243.761C313.484 231.201 318.524 222.801 325.324 222.801C331.644 222.801 334.604 230.001 334.124 241.761H316.844V242.401C316.844 254.001 320.044 262.161 325.404 262.161C327.964 262.161 330.364 260.321 333.004 256.001L333.964 256.721C330.684 262.561 327.484 264.641 324.284 264.641ZM316.924 240.081H330.844C331.004 234.001 330.524 224.241 324.684 224.241C319.884 224.241 317.244 230.721 316.924 240.081ZM361.607 264.561C358.247 264.561 355.287 262.881 353.127 260.561L352.407 249.921H353.847L354.327 252.481C355.527 259.041 358.247 263.361 362.327 263.361C365.927 263.361 367.447 259.921 367.447 256.241C367.447 251.281 364.487 248.481 362.967 246.961L357.207 241.841C355.607 240.321 352.807 237.441 352.807 232.241C352.807 226.241 356.407 222.881 361.287 222.881C364.487 222.881 367.207 224.481 369.127 226.561L369.767 236.241H368.487L368.007 233.841C366.887 228.961 364.727 224.001 360.647 224.001C357.527 224.001 355.687 227.041 355.687 230.881C355.687 234.241 356.967 236.721 359.287 238.801L365.047 243.921C367.367 246.081 370.407 249.041 370.407 254.641C370.407 260.401 367.127 264.561 361.607 264.561ZM387.887 264.641C381.167 264.641 376.687 256.081 376.687 243.841C376.687 231.361 381.327 222.801 388.127 222.801C394.927 222.801 399.407 231.281 399.407 243.521C399.407 256.001 394.607 264.641 387.887 264.641ZM380.127 242.401C380.127 254.161 383.647 263.201 388.447 263.201C393.007 263.201 395.967 255.601 395.967 244.881C395.967 233.121 392.447 224.241 387.647 224.241C383.007 224.241 380.127 231.921 380.127 242.401ZM415.854 264.321C411.134 264.321 408.334 260.081 408.334 251.921V226.401L403.214 225.601V224.721L410.814 223.761H411.614V251.841C411.614 258.161 413.614 261.841 417.054 261.841C420.814 261.841 422.894 257.281 424.094 253.121L424.654 251.121V226.481L419.294 225.601V224.721L427.134 223.761H428.014V261.121L429.294 261.761L432.254 262.081L432.334 263.041L425.694 263.601H424.734L424.974 258.801L425.294 252.001H425.054L424.734 253.281C423.374 258.641 421.294 264.321 415.854 264.321ZM437.137 263.441V262.481L440.817 262.081L442.177 261.281V206.881L436.657 206.001V205.121L444.737 204.001H445.537V261.281L446.737 262.081L450.017 262.481V263.441H437.137ZM458.559 264.001C456.479 264.001 454.959 262.321 454.959 260.241C454.959 258.241 456.479 256.481 458.559 256.481C460.479 256.481 462.079 258.241 462.079 260.241C462.079 262.321 460.479 264.001 458.559 264.001Z" fill="black"/>
</svg>
